<svg version="1.1" viewBox="0.0 0.0 585.3464566929134 289.08923884514434" fill="none" stroke="none" stroke-linecap="square" stroke-miterlimit="10" xmlns:xlink="http://www.w3.org/1999/xlink" xmlns="http://www.w3.org/2000/svg"><clipPath id="p.0"><path d="m0 0l585.34644 0l0 289.08923l-585.34644 0l0 -289.08923z" clip-rule="nonzero"/></clipPath><g clip-path="url(#p.0)"><path fill="#000000" fill-opacity="0.0" d="m0 0l585.34644 0l0 289.08923l-585.34644 0z" fill-rule="evenodd"/><path fill="#e5fff7" d="m-0.001312336 0l586.2048 0l0 290.74014l-586.2048 0z" fill-rule="evenodd"/><path fill="#fffce5" d="m70.479004 161.37007l0 0c0 -10.610825 8.827393 -19.212585 19.716537 -19.212585l0 0c5.229149 0 10.244125 2.02417 13.941696 5.627228c3.6975632 3.6030731 5.7748337 8.489868 5.7748337 13.585358l0 0c0 10.610825 -8.827393 19.2126 -19.71653 19.2126l0 0c-10.889145 0 -19.716537 -8.601776 -19.716537 -19.2126z" fill-rule="evenodd"/><path stroke="#f9df9c" stroke-width="4.0" stroke-linejoin="round" stroke-linecap="butt" d="m70.479004 161.37007l0 0c0 -10.610825 8.827393 -19.212585 19.716537 -19.212585l0 0c5.229149 0 10.244125 2.02417 13.941696 5.627228c3.6975632 3.6030731 5.7748337 8.489868 5.7748337 13.585358l0 0c0 10.610825 -8.827393 19.2126 -19.71653 19.2126l0 0c-10.889145 0 -19.716537 -8.601776 -19.716537 -19.2126z" fill-rule="evenodd"/><path fill="#000000" d="m86.816345 168.29007l0 -1.171875l3.3125 0l0 -10.4375l-3.3125 1.453125l0 -1.21875l3.8125 -1.6875l0.84375 0l0 11.890625l3.765625 0l0 1.171875l-8.421875 0z" fill-rule="nonzero"/><path fill="#fffce5" d="m30.52366 223.77953l25.433073 -23.748032l25.433067 23.748032l-25.433067 23.748032z" fill-rule="evenodd"/><path stroke="#eb8335" stroke-width="4.0" stroke-linejoin="round" stroke-linecap="butt" d="m30.52366 223.77953l25.433073 -23.748032l25.433067 23.748032l-25.433067 23.748032z" fill-rule="evenodd"/><path fill="#000000" d="m53.802696 230.69952l0 -1.171875l3.3125 0l0 -10.4375l-3.3125 1.453125l0 -1.21875l3.8125 -1.6875l0.84375 0l0 11.890625l3.765625 0l0 1.171875l-8.421875 0z" fill-rule="nonzero"/><path fill="#fffce5" d="m99.1682 223.77953l25.433067 -23.748032l25.433067 23.748032l-25.433067 23.748032z" fill-rule="evenodd"/><path stroke="#eb8335" stroke-width="4.0" stroke-linejoin="round" stroke-linecap="butt" d="m99.1682 223.77953l25.433067 -23.748032l25.433067 23.748032l-25.433067 23.748032z" fill-rule="evenodd"/><path fill="#000000" d="m126.478485 230.90265q-1.34375 0 -2.390625 -0.484375q-1.03125 -0.484375 -1.640625 -1.328125q-0.609375 -0.859375 -0.609375 -1.921875q0 -0.796875 0.390625 -1.46875q0.390625 -0.6875 1.09375 -1.171875q0.703125 -0.5 1.59375 -0.71875q-1.140625 -0.3125 -1.859375 -1.125q-0.71875 -0.828125 -0.71875 -1.859375q0 -0.96875 0.53125 -1.734375q0.546875 -0.765625 1.484375 -1.203125q0.953125 -0.453125 2.125 -0.453125q1.203125 0 2.125 0.453125q0.9375 0.4375 1.46875 1.203125q0.546875 0.765625 0.546875 1.734375q0 1.03125 -0.703125 1.859375q-0.703125 0.8125 -1.875 1.125q1.375 0.328125 2.234375 1.25q0.859375 0.921875 0.859375 2.109375q0 1.0625 -0.609375 1.921875q-0.59375 0.84375 -1.65625 1.328125q-1.046875 0.484375 -2.390625 0.484375zm0 -7.640625q0.8125 0 1.453125 -0.3125q0.640625 -0.328125 1.015625 -0.859375q0.375 -0.53125 0.375 -1.203125q0 -0.671875 -0.375 -1.203125q-0.375 -0.546875 -1.015625 -0.859375q-0.640625 -0.3125 -1.453125 -0.3125q-0.796875 0 -1.453125 0.3125q-0.640625 0.3125 -1.015625 0.859375q-0.359375 0.53125 -0.359375 1.203125q0 0.671875 0.359375 1.203125q0.375 0.53125 1.015625 0.859375q0.65625 0.3125 1.453125 0.3125zm0 6.5625q0.953125 0 1.703125 -0.34375q0.75 -0.359375 1.1875 -0.96875q0.4375 -0.625 0.4375 -1.390625q0 -0.765625 -0.4375 -1.375q-0.4375 -0.625 -1.1875 -0.96875q-0.75 -0.359375 -1.703125 -0.359375q-0.953125 0 -1.703125 0.359375q-0.734375 0.34375 -1.171875 0.96875q-0.4375 0.609375 -0.4375 1.375q0 0.765625 0.4375 1.390625q0.4375 0.609375 1.171875 0.96875q0.75 0.34375 1.703125 0.34375z" fill-rule="nonzero"/><path fill="#fffce5" d="m167.81273 223.77953l25.433075 -23.748032l25.433075 23.748032l-25.433075 23.748032z" fill-rule="evenodd"/><path stroke="#eb8335" stroke-width="4.0" stroke-linejoin="round" stroke-linecap="butt" d="m167.81273 223.77953l25.433075 -23.748032l25.433075 23.748032l-25.433075 23.748032z" fill-rule="evenodd"/><path fill="#000000" d="m197.12302 230.69952l0 -3.484375l-7.046875 0l0 -1.0625l6.9375 -8.515625l1.4375 0l0 8.390625l1.8125 0l0 1.1875l-1.8125 0l0 3.484375l-1.328125 0zm-5.484375 -4.671875l5.484375 0l0 -6.765625l-5.484375 6.765625z" fill-rule="nonzero"/><path fill="#fffce5" d="m236.45726 223.77953l25.43309 -23.748032l25.433044 23.748032l-25.433044 23.748032z" fill-rule="evenodd"/><path stroke="#eb8335" stroke-width="4.0" stroke-linejoin="round" stroke-linecap="butt" d="m236.45726 223.77953l25.43309 -23.748032l25.433044 23.748032l-25.433044 23.748032z" fill-rule="evenodd"/><path fill="#000000" d="m263.5488 230.90265q-2.578125 0 -4.4375 -1.765625l0.828125 -0.921875q0.859375 0.8125 1.703125 1.171875q0.859375 0.359375 1.921875 0.359375q0.953125 0 1.671875 -0.390625q0.734375 -0.390625 1.125 -1.09375q0.40625 -0.71875 0.40625 -1.625q0 -1.3125 -0.890625 -2.109375q-0.875 -0.8125 -2.3125 -0.8125q-0.75 0 -1.453125 0.1875q-0.703125 0.171875 -1.46875 0.5625l-0.9375 -0.296875l0.296875 -6.53125l7.421875 0l0 1.171875l-6.265625 0l-0.203125 4.515625q0.75 -0.375 1.4375 -0.53125q0.6875 -0.15625 1.453125 -0.15625q1.28125 0 2.234375 0.5q0.96875 0.484375 1.5 1.375q0.53125 0.890625 0.53125 2.0625q0 1.296875 -0.578125 2.265625q-0.578125 0.96875 -1.609375 1.515625q-1.015625 0.546875 -2.375 0.546875z" fill-rule="nonzero"/><path fill="#fffce5" d="m305.1018 223.77953l25.433075 -23.748032l25.433075 23.748032l-25.433075 23.748032z" fill-rule="evenodd"/><path stroke="#eb8335" stroke-width="4.0" stroke-linejoin="round" stroke-linecap="butt" d="m305.1018 223.77953l25.433075 -23.748032l25.433075 23.748032l-25.433075 23.748032z" fill-rule="evenodd"/><path fill="#000000" d="m328.19333 230.69952l0 -0.984375l5.234375 -5.71875q0.609375 -0.671875 0.953125 -1.171875q0.34375 -0.515625 0.484375 -0.96875q0.140625 -0.453125 0.140625 -0.953125q0 -0.984375 -0.78125 -1.625q-0.765625 -0.65625 -1.953125 -0.65625q-0.921875 0 -1.703125 0.359375q-0.78125 0.359375 -1.75 1.234375l-0.78125 -0.9375q1.015625 -0.921875 2.0625 -1.375q1.046875 -0.46875 2.1875 -0.46875q1.171875 0 2.078125 0.4375q0.921875 0.4375 1.4375 1.203125q0.53125 0.765625 0.53125 1.75q0 0.65625 -0.171875 1.21875q-0.171875 0.546875 -0.59375 1.171875q-0.421875 0.625 -1.234375 1.5l-4.453125 4.828125l6.734375 -0.015625l0 1.171875l-8.421875 0z" fill-rule="nonzero"/><path fill="#fffce5" d="m373.74634 223.77953l25.433075 -23.748032l25.433075 23.748032l-25.433075 23.748032z" fill-rule="evenodd"/><path stroke="#eb8335" stroke-width="4.0" stroke-linejoin="round" stroke-linecap="butt" d="m373.74634 223.77953l25.433075 -23.748032l25.433075 23.748032l-25.433075 23.748032z" fill-rule="evenodd"/><path fill="#000000" d="m397.75974 230.69952l6.484375 -11.890625l-7.828125 0l0 -1.171875l9.296875 0l0 1.046875l-6.421875 12.015625l-1.53125 0z" fill-rule="nonzero"/><path fill="#fffce5" d="m442.39313 223.77953l25.433075 -23.748032l25.433075 23.748032l-25.433075 23.748032z" fill-rule="evenodd"/><path stroke="#eb8335" stroke-width="4.0" stroke-linejoin="round" stroke-linecap="butt" d="m442.39313 223.77953l25.433075 -23.748032l25.433075 23.748032l-25.433075 23.748032z" fill-rule="evenodd"/><path fill="#000000" d="m469.4378 230.90265q-1.328125 0 -2.5 -0.46875q-1.171875 -0.46875 -2.0625 -1.375l0.890625 -0.875q0.828125 0.8125 1.6875 1.1875q0.875 0.359375 1.96875 0.359375q0.953125 0 1.6875 -0.328125q0.75 -0.34375 1.15625 -0.9375q0.40625 -0.59375 0.40625 -1.359375q0 -0.734375 -0.375 -1.296875q-0.359375 -0.578125 -1.0 -0.890625q-0.625 -0.3125 -1.4375 -0.3125l-1.546875 0l0 -1.15625l1.484375 0q1.0625 0 1.71875 -0.65625q0.671875 -0.65625 0.671875 -1.703125q0 -0.6875 -0.375 -1.25q-0.375 -0.5625 -1.015625 -0.890625q-0.640625 -0.328125 -1.4375 -0.328125q-1.015625 0 -1.8125 0.375q-0.78125 0.359375 -1.609375 1.21875l-0.890625 -0.890625q0.875 -0.9375 1.96875 -1.40625q1.109375 -0.484375 2.359375 -0.484375q1.1875 0 2.125 0.46875q0.953125 0.46875 1.484375 1.28125q0.546875 0.8125 0.546875 1.828125q0 1.03125 -0.671875 1.84375q-0.671875 0.8125 -1.765625 1.125q1.3125 0.296875 2.109375 1.15625q0.8125 0.859375 0.8125 2.0q0 1.078125 -0.59375 1.9375q-0.578125 0.859375 -1.625 1.34375q-1.03125 0.484375 -2.359375 0.484375z" fill-rule="nonzero"/><path fill="#fffce5" d="m511.0377 223.77953l25.433075 -23.748032l25.433044 23.748032l-25.433044 23.748032z" fill-rule="evenodd"/><path stroke="#eb8335" stroke-width="4.0" stroke-linejoin="round" stroke-linecap="butt" d="m511.0377 223.77953l25.433075 -23.748032l25.433044 23.748032l-25.433044 23.748032z" fill-rule="evenodd"/><path fill="#000000" d="m538.7386 230.88702q-1.5 0 -2.65625 -0.796875q-1.140625 -0.8125 -1.796875 -2.21875q-0.65625 -1.40625 -0.65625 -3.25q0 -2.171875 0.71875 -3.78125q0.734375 -1.609375 2.0625 -2.5q1.328125 -0.90625 3.078125 -0.90625q0.828125 0 1.625 0.234375q0.796875 0.21875 1.4375 0.640625l-0.671875 1.046875q-0.578125 -0.328125 -1.21875 -0.515625q-0.625 -0.1875 -1.28125 -0.1875q-1.34375 0 -2.328125 0.703125q-0.96875 0.6875 -1.515625 2.0q-0.53125 1.296875 -0.5625 3.125q0.734375 -0.921875 1.734375 -1.4375q1.015625 -0.53125 2.09375 -0.53125q1.265625 0 2.25 0.53125q1.0 0.515625 1.546875 1.4375q0.5625 0.921875 0.5625 2.09375q0 1.234375 -0.578125 2.21875q-0.578125 0.96875 -1.578125 1.53125q-1.0 0.5625 -2.265625 0.5625zm-0.125 -7.28125q-1.03125 0 -1.96875 0.515625q-0.9375 0.515625 -1.640625 1.40625q0.15625 1.25 0.640625 2.203125q0.5 0.9375 1.296875 1.46875q0.796875 0.515625 1.78125 0.515625q0.890625 0 1.59375 -0.40625q0.703125 -0.40625 1.09375 -1.109375q0.40625 -0.703125 0.40625 -1.578125q0 -0.890625 -0.40625 -1.5625q-0.40625 -0.6875 -1.125 -1.0625q-0.71875 -0.390625 -1.671875 -0.390625z" fill-rule="nonzero"/><path fill="#fffce5" d="m211.53937 161.37007l0 0c0 -10.610825 8.827393 -19.212585 19.716537 -19.212585l0 0c5.2291565 0 10.244125 2.02417 13.941696 5.627228c3.6975708 3.6030731 5.7748413 8.489868 5.7748413 13.585358l0 0c0 10.610825 -8.827393 19.2126 -19.716537 19.2126l0 0c-10.889145 0 -19.716537 -8.601776 -19.716537 -19.2126z" fill-rule="evenodd"/><path stroke="#f9df9c" stroke-width="4.0" stroke-linejoin="round" stroke-linecap="butt" d="m211.53937 161.37007l0 0c0 -10.610825 8.827393 -19.212585 19.716537 -19.212585l0 0c5.2291565 0 10.244125 2.02417 13.941696 5.627228c3.6975708 3.6030731 5.7748413 8.489868 5.7748413 13.585358l0 0c0 10.610825 -8.827393 19.2126 -19.716537 19.2126l0 0c-10.889145 0 -19.716537 -8.601776 -19.716537 -19.2126z" fill-rule="evenodd"/><path fill="#000000" d="m233.90796 168.29007l0 -3.484375l-7.046875 0l0 -1.0625l6.9375 -8.515625l1.4375 0l0 8.390625l1.8125 0l0 1.1875l-1.8125 0l0 3.484375l-1.328125 0zm-5.484375 -4.671875l5.484375 0l0 -6.765625l-5.484375 6.765625z" fill-rule="nonzero"/><path fill="#fffce5" d="m348.1929 161.37007l0 0c0 -10.610825 8.827393 -19.212585 19.716553 -19.212585l0 0c5.2291565 0 10.24411 2.02417 13.941681 5.627228c3.6975708 3.6030731 5.7748413 8.489868 5.7748413 13.585358l0 0c0 10.610825 -8.827393 19.2126 -19.716522 19.2126l0 0c-10.88916 0 -19.716553 -8.601776 -19.716553 -19.2126z" fill-rule="evenodd"/><path stroke="#f9df9c" stroke-width="4.0" stroke-linejoin="round" stroke-linecap="butt" d="m348.1929 161.37007l0 0c0 -10.610825 8.827393 -19.212585 19.716553 -19.212585l0 0c5.2291565 0 10.24411 2.02417 13.941681 5.627228c3.6975708 3.6030731 5.7748413 8.489868 5.7748413 13.585358l0 0c0 10.610825 -8.827393 19.2126 -19.716522 19.2126l0 0c-10.88916 0 -19.716553 -8.601776 -19.716553 -19.2126z" fill-rule="evenodd"/><path fill="#000000" d="m364.34274 168.29007l0 -0.984375l5.234375 -5.71875q0.609375 -0.671875 0.953125 -1.171875q0.34375 -0.515625 0.484375 -0.96875q0.140625 -0.453125 0.140625 -0.953125q0 -0.984375 -0.78125 -1.625q-0.765625 -0.65625 -1.953125 -0.65625q-0.921875 0 -1.703125 0.359375q-0.78125 0.359375 -1.75 1.234375l-0.78125 -0.9375q1.015625 -0.921875 2.0625 -1.375q1.046875 -0.46875 2.1875 -0.46875q1.171875 0 2.078125 0.4375q0.921875 0.4375 1.4375 1.203125q0.53125 0.765625 0.53125 1.75q0 0.65625 -0.171875 1.21875q-0.171875 0.546875 -0.59375 1.171875q-0.421875 0.625 -1.234375 1.5l-4.453125 4.828125l6.734375 -0.015625l0 1.171875l-8.421875 0z" fill-rule="nonzero"/><path fill="#fffce5" d="m484.84647 161.37007l0 0c0 -10.610825 8.827393 -19.212585 19.716522 -19.212585l0 0c5.2291565 0 10.244141 2.02417 13.941711 5.627228c3.6975708 3.6030731 5.7748413 8.489868 5.7748413 13.585358l0 0c0 10.610825 -8.827393 19.2126 -19.716553 19.2126l0 0c-10.88913 0 -19.716522 -8.601776 -19.716522 -19.2126z" fill-rule="evenodd"/><path stroke="#f9df9c" stroke-width="4.0" stroke-linejoin="round" stroke-linecap="butt" d="m484.84647 161.37007l0 0c0 -10.610825 8.827393 -19.212585 19.716522 -19.212585l0 0c5.2291565 0 10.244141 2.02417 13.941711 5.627228c3.6975708 3.6030731 5.7748413 8.489868 5.7748413 13.585358l0 0c0 10.610825 -8.827393 19.2126 -19.716553 19.2126l0 0c-10.88913 0 -19.716522 -8.601776 -19.716522 -19.2126z" fill-rule="evenodd"/><path fill="#000000" d="m504.94943 168.4932q-1.328125 0 -2.5 -0.46875q-1.171875 -0.46875 -2.0625 -1.375l0.890625 -0.875q0.828125 0.8125 1.6875 1.1875q0.875 0.359375 1.96875 0.359375q0.953125 0 1.6875 -0.328125q0.75 -0.34375 1.15625 -0.9375q0.40625 -0.59375 0.40625 -1.359375q0 -0.734375 -0.375 -1.296875q-0.359375 -0.578125 -1.0 -0.890625q-0.625 -0.3125 -1.4375 -0.3125l-1.546875 0l0 -1.15625l1.484375 0q1.0625 0 1.71875 -0.65625q0.671875 -0.65625 0.671875 -1.703125q0 -0.6875 -0.375 -1.25q-0.375 -0.5625 -1.015625 -0.890625q-0.640625 -0.328125 -1.4375 -0.328125q-1.015625 0 -1.8125 0.375q-0.78125 0.359375 -1.609375 1.21875l-0.890625 -0.890625q0.875 -0.9375 1.96875 -1.40625q1.109375 -0.484375 2.359375 -0.484375q1.1875 0 2.125 0.46875q0.953125 0.46875 1.484375 1.28125q0.546875 0.8125 0.546875 1.828125q0 1.03125 -0.671875 1.84375q-0.671875 0.8125 -1.765625 1.125q1.3125 0.296875 2.109375 1.15625q0.8125 0.859375 0.8125 2.0q0 1.078125 -0.59375 1.9375q-0.578125 0.859375 -1.625 1.34375q-1.03125 0.484375 -2.359375 0.484375z" fill-rule="nonzero"/><path fill="#fffce5" d="m142.02756 99.72179l0 0c0 -10.610825 8.827393 -19.2126 19.716537 -19.2126l0 0c5.2291565 0 10.244125 2.0241776 13.941696 5.6272354c3.6975708 3.6030655 5.7748413 8.489861 5.7748413 13.585365l0 0c0 10.610825 -8.827393 19.212593 -19.716537 19.212593l0 0c-10.889145 0 -19.716537 -8.6017685 -19.716537 -19.212593z" fill-rule="evenodd"/><path stroke="#f9df9c" stroke-width="4.0" stroke-linejoin="round" stroke-linecap="butt" d="m142.02756 99.72179l0 0c0 -10.610825 8.827393 -19.2126 19.716537 -19.2126l0 0c5.2291565 0 10.244125 2.0241776 13.941696 5.6272354c3.6975708 3.6030655 5.7748413 8.489861 5.7748413 13.585365l0 0c0 10.610825 -8.827393 19.212593 -19.716537 19.212593l0 0c-10.889145 0 -19.716537 -8.6017685 -19.716537 -19.212593z" fill-rule="evenodd"/><path fill="#000000" d="m158.3649 106.64178l0 -1.171875l3.3125 0l0 -10.4375l-3.3125 1.453125l0 -1.21875l3.8125 -1.6875l0.84375 0l0 11.890625l3.765625 0l0 1.171875l-8.421875 0z" fill-rule="nonzero"/><path fill="#fffce5" d="m414.26642 99.72179l0 0c0 -10.610825 8.827393 -19.2126 19.716522 -19.2126l0 0c5.2291565 0 10.244141 2.0241776 13.941681 5.6272354c3.6975708 3.6030655 5.7748413 8.489861 5.7748413 13.585365l0 0c0 10.610825 -8.827393 19.212593 -19.716522 19.212593l0 0c-10.88913 0 -19.716522 -8.6017685 -19.716522 -19.212593z" fill-rule="evenodd"/><path stroke="#f9df9c" stroke-width="4.0" stroke-linejoin="round" stroke-linecap="butt" d="m414.26642 99.72179l0 0c0 -10.610825 8.827393 -19.2126 19.716522 -19.2126l0 0c5.2291565 0 10.244141 2.0241776 13.941681 5.6272354c3.6975708 3.6030655 5.7748413 8.489861 5.7748413 13.585365l0 0c0 10.610825 -8.827393 19.212593 -19.716522 19.212593l0 0c-10.88913 0 -19.716522 -8.6017685 -19.716522 -19.212593z" fill-rule="evenodd"/><path fill="#000000" d="m430.41623 106.64178l0 -0.984375l5.234375 -5.71875q0.609375 -0.671875 0.953125 -1.171875q0.34375 -0.515625 0.484375 -0.96875q0.140625 -0.453125 0.140625 -0.953125q0 -0.984375 -0.78125 -1.625q-0.765625 -0.65625 -1.953125 -0.65625q-0.921875 0 -1.703125 0.359375q-0.78125 0.359375 -1.75 1.234375l-0.78125 -0.9375q1.015625 -0.921875 2.0625 -1.375q1.046875 -0.46875 2.1875 -0.46875q1.171875 0 2.078125 0.4375q0.921875 0.4375 1.4375 1.203125q0.53125 0.765625 0.53125 1.75q0 0.65625 -0.171875 1.21875q-0.171875 0.546875 -0.59375 1.171875q-0.421875 0.625 -1.234375 1.5l-4.453125 4.828125l6.734375 -0.015625l0 1.171875l-8.421875 0z" fill-rule="nonzero"/><path fill="#fffce5" d="m278.08267 37.475063l0 0c0 -10.610825 8.827393 -19.212597 19.716553 -19.212597l0 0c5.229126 0 10.24411 2.0241776 13.941681 5.627239c3.6975708 3.6030617 5.7748413 8.489861 5.7748413 13.585358l0 0c0 10.610825 -8.827393 19.2126 -19.716522 19.2126l0 0c-10.88916 0 -19.716553 -8.601776 -19.716553 -19.2126z" fill-rule="evenodd"/><path stroke="#f9df9c" stroke-width="4.0" stroke-linejoin="round" stroke-linecap="butt" d="m278.08267 37.475063l0 0c0 -10.610825 8.827393 -19.212597 19.716553 -19.212597l0 0c5.229126 0 10.24411 2.0241776 13.941681 5.627239c3.6975708 3.6030617 5.7748413 8.489861 5.7748413 13.585358l0 0c0 10.610825 -8.827393 19.2126 -19.716522 19.2126l0 0c-10.88916 0 -19.716553 -8.601776 -19.716553 -19.2126z" fill-rule="evenodd"/><path fill="#000000" d="m294.42 44.39506l0 -1.171875l3.3125 0l0 -10.4375l-3.3125 1.453125l0 -1.21875l3.8125 -1.6875l0.84375 0l0 11.890625l3.765625 0l0 1.171875l-8.421875 0z" fill-rule="nonzero"/></g></svg>