<svg version="1.1" viewBox="0.0 0.0 1024.0 370.6745406824147" fill="none" stroke="none" stroke-linecap="square" stroke-miterlimit="10" xmlns:xlink="http://www.w3.org/1999/xlink" xmlns="http://www.w3.org/2000/svg"><clipPath id="p.0"><path d="m0 0l1024.0 0l0 370.67453l-1024.0 0l0 -370.67453z" clip-rule="nonzero"/></clipPath><g clip-path="url(#p.0)"><path fill="#000000" fill-opacity="0.0" d="m0 0l1024.0 0l0 370.67453l-1024.0 0z" fill-rule="evenodd"/><path fill="#e5fff7" d="m-3.8323836 -1.2257218l1035.8425 0l0 379.7795l-1035.8425 0z" fill-rule="evenodd"/><path fill="#fffce5" d="m102.40169 217.44882l0 0c0 -25.38771 22.047333 -45.968506 49.244095 -45.968506l0 0c27.196762 0 49.244095 20.580795 49.244095 45.968506l0 0c0 25.387695 -22.047333 45.968506 -49.244095 45.968506l0 0c-27.196762 0 -49.244095 -20.58081 -49.244095 -45.968506z" fill-rule="evenodd"/><path stroke="#f9df9c" stroke-width="4.0" stroke-linejoin="round" stroke-linecap="butt" d="m102.40169 217.44882l0 0c0 -25.38771 22.047333 -45.968506 49.244095 -45.968506l0 0c27.196762 0 49.244095 20.580795 49.244095 45.968506l0 0c0 25.387695 -22.047333 45.968506 -49.244095 45.968506l0 0c-27.196762 0 -49.244095 -20.58081 -49.244095 -45.968506z" fill-rule="evenodd"/><path fill="#000000" fill-opacity="0.0" d="m-7.9754634 185.13387l117.32284 0l0 64.62991l-117.32284 0z" fill-rule="evenodd"/><path fill="#000000" d="m30.204693 212.05386l0 -13.0625l4.046875 0q1.25 0 2.171875 0.484375q0.9375 0.46875 1.453125 1.3125q0.53125 0.84375 0.53125 1.96875q0 1.3125 -0.734375 2.234375q-0.71875 0.921875 -1.96875 1.296875l2.921875 5.765625l-1.578125 0l-2.796875 -5.578125l-2.609375 0l0 5.578125l-1.4375 0zm1.4375 -6.765625l2.5 0q1.28125 0 2.046875 -0.6875q0.78125 -0.6875 0.78125 -1.8125q0 -1.15625 -0.78125 -1.84375q-0.765625 -0.703125 -2.046875 -0.703125l-2.5 0l0 5.046875zm13.443756 6.953125q-1.25 0 -2.25 -0.625q-1.0 -0.625 -1.59375 -1.6875q-0.578125 -1.0625 -0.578125 -2.40625q0 -1.34375 0.578125 -2.40625q0.59375 -1.078125 1.59375 -1.6875q1.0 -0.625 2.25 -0.625q1.25 0 2.25 0.625q1.0 0.609375 1.578125 1.6875q0.59375 1.0625 0.59375 2.40625q0 1.34375 -0.59375 2.40625q-0.578125 1.0625 -1.578125 1.6875q-1.0 0.625 -2.25 0.625zm0 -1.21875q0.90625 0 1.59375 -0.453125q0.6875 -0.453125 1.078125 -1.25q0.40625 -0.796875 0.40625 -1.8125q0 -1.015625 -0.40625 -1.796875q-0.390625 -0.78125 -1.078125 -1.234375q-0.6875 -0.46875 -1.59375 -0.46875q-0.890625 0 -1.578125 0.46875q-0.6875 0.453125 -1.09375 1.234375q-0.40625 0.78125 -0.40625 1.796875q0 1.015625 0.40625 1.8125q0.40625 0.796875 1.09375 1.25q0.6875 0.453125 1.578125 0.453125zm11.19376 1.21875q-1.2500038 0 -2.2500038 -0.625q-1.0 -0.625 -1.59375 -1.6875q-0.578125 -1.0625 -0.578125 -2.40625q0 -1.34375 0.578125 -2.40625q0.59375 -1.078125 1.59375 -1.6875q1.0 -0.625 2.2500038 -0.625q1.25 0 2.25 0.625q1.0 0.609375 1.578125 1.6875q0.59375 1.0625 0.59375 2.40625q0 1.34375 -0.59375 2.40625q-0.578125 1.0625 -1.578125 1.6875q-1.0 0.625 -2.25 0.625zm0 -1.21875q0.90625 0 1.59375 -0.453125q0.6875 -0.453125 1.078125 -1.25q0.40625 -0.796875 0.40625 -1.8125q0 -1.015625 -0.40625 -1.796875q-0.390625 -0.78125 -1.078125 -1.234375q-0.6875 -0.46875 -1.59375 -0.46875q-0.8906288 0 -1.5781288 0.46875q-0.6875 0.453125 -1.09375 1.234375q-0.40625 0.78125 -0.40625 1.796875q0 1.015625 0.40625 1.8125q0.40625 0.796875 1.09375 1.25q0.6875 0.453125 1.5781288 0.453125zm12.693756 1.21875q-1.53125 0 -2.34375 -0.65625q-0.8125 -0.671875 -0.8125 -1.9375l0 -5.578125l-3.109375 0l0 -1.125l3.109375 0l0 -2.5l1.359375 -0.3125l0 2.8125l4.203125 0l0 1.125l-4.203125 0l0 5.359375q0 0.859375 0.46875 1.234375q0.46875 0.359375 1.34375 0.359375q0.546875 0 1.125 -0.109375q0.578125 -0.109375 1.265625 -0.375l0 1.234375q-0.625 0.21875 -1.21875 0.34375q-0.59375 0.125 -1.1875 0.125z" fill-rule="nonzero"/><path fill="#000000" d="m22.807812 234.65698q-1.296875 0 -2.4375 -0.78125q-1.125 -0.78125 -1.8125 -2.28125q-0.6875 -1.5 -0.6875 -3.671875q0 -2.15625 0.6875 -3.65625q0.6875 -1.515625 1.8125 -2.296875q1.140625 -0.78125 2.4375 -0.78125q1.140625 0 2.078125 0.484375q0.9375 0.46875 1.609375 1.375q0.671875 0.890625 1.015625 2.15625l-1.359375 0.421875q-0.375 -1.5 -1.28125 -2.3125q-0.90625 -0.8125 -2.0625 -0.8125q-0.96875 0 -1.765625 0.640625q-0.78125 0.640625 -1.25 1.859375q-0.46875 1.203125 -0.46875 2.921875q0 1.71875 0.46875 2.9375q0.46875 1.203125 1.25 1.859375q0.796875 0.640625 1.765625 0.640625q1.15625 0 2.0625 -0.8125q0.90625 -0.8125 1.28125 -2.328125l1.359375 0.421875q-0.34375 1.25 -1.015625 2.15625q-0.671875 0.90625 -1.609375 1.390625q-0.9375 0.46875 -2.078125 0.46875zm11.084381 -0.015625q-1.25 0 -2.25 -0.625q-1.0 -0.625 -1.59375 -1.6875q-0.578125 -1.0625 -0.578125 -2.40625q0 -1.34375 0.578125 -2.40625q0.59375 -1.078125 1.59375 -1.6875q1.0 -0.625 2.25 -0.625q1.25 0 2.25 0.625q1.0 0.609375 1.578125 1.6875q0.59375 1.0625 0.59375 2.40625q0 1.34375 -0.59375 2.40625q-0.578125 1.0625 -1.578125 1.6875q-1.0 0.625 -2.25 0.625zm0 -1.21875q0.90625 0 1.59375 -0.453125q0.6875 -0.453125 1.078125 -1.25q0.40625 -0.796875 0.40625 -1.8125q0 -1.015625 -0.40625 -1.796875q-0.390625 -0.78125 -1.078125 -1.234375q-0.6875 -0.46875 -1.59375 -0.46875q-0.890625 0 -1.578125 0.46875q-0.6875 0.453125 -1.09375 1.234375q-0.40625 0.78125 -0.40625 1.796875q0 1.015625 0.40625 1.8125q0.40625 0.796875 1.09375 1.25q0.6875 0.453125 1.578125 0.453125zm6.850006 1.03125l0 -9.109375l1.265625 0l0 0.78125q0.34375 -0.484375 0.734375 -0.6875q0.40625 -0.21875 0.921875 -0.21875q0.609375 0 1.0625 0.296875q0.46875 0.28125 0.734375 0.796875q0.375 -0.578125 0.859375 -0.828125q0.5 -0.265625 1.140625 -0.265625q0.90625 0 1.46875 0.671875q0.578125 0.671875 0.578125 1.75l0 6.8125l-1.25 0l0 -6.46875q0 -0.8125 -0.34375 -1.265625q-0.328125 -0.46875 -0.953125 -0.46875q-0.359375 0 -0.65625 0.15625q-0.296875 0.15625 -0.578125 0.609375q0.03125 0.140625 0.03125 0.296875q0.015625 0.15625 0.015625 0.328125l0 6.8125l-1.25 0l0 -6.46875q0 -0.8125 -0.34375 -1.265625q-0.34375 -0.46875 -1.0 -0.46875q-0.3125 0 -0.609375 0.140625q-0.296875 0.140625 -0.5625 0.546875l0 7.515625l-1.265625 0zm11.193756 0l0 -9.109375l1.265625 0l0 0.78125q0.34375 -0.484375 0.734375 -0.6875q0.40625 -0.21875 0.921875 -0.21875q0.609375 0 1.0625 0.296875q0.4687538 0.28125 0.7343788 0.796875q0.375 -0.578125 0.859375 -0.828125q0.5 -0.265625 1.140625 -0.265625q0.90625 0 1.46875 0.671875q0.578125 0.671875 0.578125 1.75l0 6.8125l-1.25 0l0 -6.46875q0 -0.8125 -0.34375 -1.265625q-0.328125 -0.46875 -0.953125 -0.46875q-0.359375 0 -0.65625 0.15625q-0.296875 0.15625 -0.578125 0.609375q0.03125 0.140625 0.03125 0.296875q0.015625 0.15625 0.015625 0.328125l0 6.8125l-1.2500038 0l0 -6.46875q0 -0.8125 -0.34375 -1.265625q-0.34375 -0.46875 -1.0 -0.46875q-0.3125 0 -0.609375 0.140625q-0.296875 0.140625 -0.5625 0.546875l0 7.515625l-1.265625 0zm15.41251 -11.265625q-0.484375 0 -0.828125 -0.34375q-0.34375 -0.34375 -0.34375 -0.8125q0 -0.484375 0.34375 -0.8125q0.34375 -0.34375 0.828125 -0.34375q0.484375 0 0.828125 0.34375q0.34375 0.328125 0.34375 0.8125q0 0.46875 -0.34375 0.8125q-0.34375 0.34375 -0.828125 0.34375zm2.28125 11.453125q-1.4375 0 -2.203125 -0.671875q-0.765625 -0.671875 -0.765625 -2.015625l0 -5.484375l-3.375 0l0 -1.125l4.734375 0l0 6.484375q0 0.859375 0.40625 1.234375q0.40625 0.359375 1.21875 0.359375q0.484375 0 0.984375 -0.09375q0.5 -0.109375 1.125 -0.34375l0 1.21875q-0.546875 0.1875 -1.078125 0.3125q-0.53125 0.125 -1.046875 0.125zm10.537506 0q-1.53125 0 -2.34375 -0.65625q-0.8125 -0.671875 -0.8125 -1.9375l0 -5.578125l-3.109375 0l0 -1.125l3.109375 0l0 -2.5l1.359375 -0.3125l0 2.8125l4.203125 0l0 1.125l-4.203125 0l0 5.359375q0 0.859375 0.46875 1.234375q0.46875 0.359375 1.34375 0.359375q0.546875 0 1.125 -0.109375q0.578125 -0.109375 1.265625 -0.375l0 1.234375q-0.625 0.21875 -1.21875 0.34375q-0.59375 0.125 -1.1875 0.125z" fill-rule="nonzero"/><path fill="#fffce5" d="m305.45618 217.44882l0 0c0 -25.38771 22.047333 -45.968506 49.24408 -45.968506l0 0c27.196777 0 49.24411 20.580795 49.24411 45.968506l0 0c0 25.387695 -22.047333 45.968506 -49.24411 45.968506l0 0c-27.196747 0 -49.24408 -20.58081 -49.24408 -45.968506z" fill-rule="evenodd"/><path stroke="#f9df9c" stroke-width="4.0" stroke-linejoin="round" stroke-linecap="butt" d="m305.45618 217.44882l0 0c0 -25.38771 22.047333 -45.968506 49.24408 -45.968506l0 0c27.196777 0 49.24411 20.580795 49.24411 45.968506l0 0c0 25.387695 -22.047333 45.968506 -49.24411 45.968506l0 0c-27.196747 0 -49.24408 -20.58081 -49.24408 -45.968506z" fill-rule="evenodd"/><path fill="#000000" fill-opacity="0.0" d="m216.24289 217.44882l73.85828 0" fill-rule="evenodd"/><path stroke="#476a97" stroke-width="3.0" stroke-linejoin="round" stroke-linecap="butt" d="m216.24289 217.44882l55.858276 0" fill-rule="evenodd"/><path fill="#476a97" stroke="#476a97" stroke-width="3.0" stroke-linecap="butt" d="m272.10117 222.40402l13.614288 -4.9552l-13.614288 -4.9552z" fill-rule="evenodd"/><path fill="#000000" fill-opacity="0.0" d="m161.0543 263.41733l206.92912 0l0 51.716522l-206.92912 0z" fill-rule="evenodd"/><path fill="#646485" d="m173.46056 285.35794q-0.703125 0 -1.265625 -0.25q-0.546875 -0.265625 -0.859375 -0.703125q-0.296875 -0.453125 -0.296875 -1.046875q0 -0.578125 0.3125 -1.015625q0.3125 -0.4375 0.875 -0.671875q0.578125 -0.25 1.3125 -0.25q0.59375 0 1.09375 0.109375q0.515625 0.109375 0.96875 0.375l0 -0.734375q0 -0.875 -0.4375 -1.3125q-0.4375 -0.4375 -1.3125 -0.4375q-0.484375 0 -0.984375 0.140625q-0.5 0.140625 -1.109375 0.484375l-0.390625 -0.734375q0.703125 -0.390625 1.34375 -0.546875q0.640625 -0.15625 1.265625 -0.15625q1.234375 0 1.90625 0.625q0.671875 0.625 0.671875 1.796875l0 4.1875l-0.953125 0l0 -0.75q-0.453125 0.453125 -0.984375 0.671875q-0.53125 0.21875 -1.15625 0.21875zm-1.484375 -2.015625q0 0.5625 0.46875 0.921875q0.46875 0.34375 1.21875 0.34375q0.578125 0 1.046875 -0.171875q0.46875 -0.1875 0.890625 -0.59375l0 -1.25q-0.421875 -0.25 -0.890625 -0.359375q-0.453125 -0.109375 -1.015625 -0.109375q-0.78125 0 -1.25 0.34375q-0.46875 0.328125 -0.46875 0.875zm9.809341 1.96875q-0.84375 0 -1.53125 -0.4375q-0.671875 -0.453125 -1.078125 -1.203125q-0.390625 -0.765625 -0.390625 -1.6875q0 -0.953125 0.40625 -1.703125q0.40625 -0.75 1.09375 -1.1875q0.703125 -0.453125 1.546875 -0.453125q0.609375 0 1.125 0.234375q0.515625 0.21875 0.90625 0.671875l0 -3.953125l0.96875 -0.203125l0 9.828125l-0.96875 0l0 -0.859375q-0.375 0.453125 -0.90625 0.703125q-0.53125 0.25 -1.171875 0.25zm0.234375 -0.859375q0.578125 0 1.046875 -0.21875q0.484375 -0.234375 0.796875 -0.640625l0 -3.21875q-0.328125 -0.421875 -0.8125 -0.65625q-0.484375 -0.234375 -1.03125 -0.234375q-0.65625 0 -1.171875 0.328125q-0.5 0.3125 -0.8125 0.875q-0.296875 0.5625 -0.296875 1.28125q0 0.703125 0.296875 1.28125q0.3125 0.5625 0.8125 0.890625q0.515625 0.3125 1.171875 0.3125zm7.7624664 0.859375q-0.84375 0 -1.53125 -0.4375q-0.671875 -0.453125 -1.078125 -1.203125q-0.390625 -0.765625 -0.390625 -1.6875q0 -0.953125 0.40625 -1.703125q0.40625 -0.75 1.09375 -1.1875q0.703125 -0.453125 1.546875 -0.453125q0.609375 0 1.125 0.234375q0.515625 0.21875 0.90625 0.671875l0 -3.953125l0.96875 -0.203125l0 9.828125l-0.96875 0l0 -0.859375q-0.375 0.453125 -0.90625 0.703125q-0.53125 0.25 -1.171875 0.25zm0.234375 -0.859375q0.578125 0 1.046875 -0.21875q0.484375 -0.234375 0.796875 -0.640625l0 -3.21875q-0.328125 -0.421875 -0.8125 -0.65625q-0.484375 -0.234375 -1.03125 -0.234375q-0.65625 0 -1.171875 0.328125q-0.5 0.3125 -0.8125 0.875q-0.296875 0.5625 -0.296875 1.28125q0 0.703125 0.296875 1.28125q0.3125 0.5625 0.8125 0.890625q0.515625 0.3125 1.171875 0.3125zm13.337433 0.765625l0 -9.625l0.984375 -0.203125l0 4.375q0.734375 -1.15625 2.0625 -1.15625q0.703125 0 1.234375 0.296875q0.53125 0.296875 0.828125 0.84375q0.296875 0.53125 0.296875 1.25l0 4.21875l-0.96875 0l0 -3.9375q0 -0.859375 -0.484375 -1.359375q-0.46875 -0.5 -1.265625 -0.5q-0.53125 0 -0.984375 0.25q-0.4375 0.25 -0.71875 0.75l0 4.796875l-0.984375 0zm10.840591 0.140625q-0.9375 0 -1.6875 -0.453125q-0.734375 -0.453125 -1.171875 -1.21875q-0.4375 -0.765625 -0.4375 -1.71875q0 -0.96875 0.40625 -1.71875q0.421875 -0.765625 1.140625 -1.203125q0.71875 -0.4375 1.59375 -0.4375q0.921875 0 1.640625 0.4375q0.71875 0.421875 1.125 1.171875q0.421875 0.734375 0.421875 1.671875l0 0.296875l-5.375 0q0.046875 0.65625 0.359375 1.1875q0.328125 0.53125 0.859375 0.828125q0.53125 0.296875 1.171875 0.296875q0.5625 0 1.0625 -0.21875q0.5 -0.21875 0.84375 -0.609375l0.671875 0.59375q-0.515625 0.546875 -1.1875 0.828125q-0.65625 0.265625 -1.4375 0.265625zm-2.3125 -3.90625l4.375 0q-0.078125 -0.578125 -0.390625 -1.03125q-0.3125 -0.453125 -0.78125 -0.703125q-0.46875 -0.265625 -1.0625 -0.265625q-0.546875 0 -1.0 0.25q-0.453125 0.25 -0.75 0.703125q-0.296875 0.453125 -0.390625 1.046875zm11.684341 3.90625q-1.03125 0 -1.578125 -0.484375q-0.546875 -0.484375 -0.546875 -1.4375l0 -7.109375l-2.40625 0l0 -0.796875l3.390625 0l0 7.8125q0 0.609375 0.28125 0.875q0.296875 0.265625 0.875 0.265625q0.34375 0 0.703125 -0.0625q0.359375 -0.078125 0.796875 -0.25l0 0.875q-0.390625 0.125 -0.765625 0.21875q-0.375 0.09375 -0.75 0.09375zm7.9968414 0q-1.03125 0 -1.578125 -0.484375q-0.546875 -0.484375 -0.546875 -1.4375l0 -7.109375l-2.40625 0l0 -0.796875l3.390625 0l0 7.8125q0 0.609375 0.28125 0.875q0.296875 0.265625 0.875 0.265625q0.34375 0 0.703125 -0.0625q0.359375 -0.078125 0.796875 -0.25l0 0.875q-0.390625 0.125 -0.765625 0.21875q-0.375 0.09375 -0.75 0.09375zm6.4655914 0q-0.890625 0 -1.609375 -0.453125q-0.71875 -0.453125 -1.140625 -1.203125q-0.40625 -0.765625 -0.40625 -1.71875q0 -0.96875 0.40625 -1.734375q0.421875 -0.765625 1.140625 -1.203125q0.71875 -0.4375 1.609375 -0.4375q0.890625 0 1.59375 0.4375q0.71875 0.4375 1.140625 1.203125q0.421875 0.765625 0.421875 1.734375q0 0.953125 -0.421875 1.71875q-0.421875 0.75 -1.140625 1.203125q-0.703125 0.453125 -1.59375 0.453125zm0 -0.875q0.640625 0 1.125 -0.328125q0.5 -0.328125 0.78125 -0.890625q0.296875 -0.5625 0.296875 -1.296875q0 -0.71875 -0.296875 -1.28125q-0.28125 -0.5625 -0.78125 -0.890625q-0.484375 -0.328125 -1.125 -0.328125q-0.640625 0 -1.140625 0.328125q-0.484375 0.328125 -0.78125 0.890625q-0.28125 0.5625 -0.28125 1.28125q0 0.734375 0.28125 1.296875q0.296875 0.5625 0.78125 0.890625q0.5 0.328125 1.140625 0.328125zm4.9343414 2.5625l0 -0.765625l6.125 0l0 0.765625l-6.125 0zm8.856216 -1.828125l-1.296875 -6.5l0.875 0l0.921875 5.15625l1.296875 -5.15625l0.875 0l1.3125 5.15625l0.90626526 -5.15625l0.796875 0l-1.28125 6.5l-0.89064026 0l-1.296875 -5.234375l-1.3125 5.234375l-0.90625 0zm10.199966 0.140625q-0.890625 0 -1.609375 -0.453125q-0.71875 -0.453125 -1.140625 -1.203125q-0.40625 -0.765625 -0.40625 -1.71875q0 -0.96875 0.40625 -1.734375q0.421875 -0.765625 1.140625 -1.203125q0.71875 -0.4375 1.609375 -0.4375q0.890625 0 1.59375 0.4375q0.71875 0.4375 1.140625 1.203125q0.421875 0.765625 0.421875 1.734375q0 0.953125 -0.421875 1.71875q-0.421875 0.75 -1.140625 1.203125q-0.703125 0.453125 -1.59375 0.453125zm0 -0.875q0.640625 0 1.125 -0.328125q0.5 -0.328125 0.78125 -0.890625q0.296875 -0.5625 0.296875 -1.296875q0 -0.71875 -0.296875 -1.28125q-0.28125 -0.5625 -0.78125 -0.890625q-0.484375 -0.328125 -1.125 -0.328125q-0.640625 0 -1.140625 0.328125q-0.484375 0.328125 -0.78125 0.890625q-0.28125 0.5625 -0.28125 1.28125q0 0.734375 0.28125 1.296875q0.296875 0.5625 0.78125 0.890625q0.5 0.328125 1.140625 0.328125zm5.2312317 0.734375l0 -0.796875l1.796875 0l0 -4.90625l-1.796875 0l0 -0.796875l2.765625 0l0 1.453125q0.296875 -0.75 0.875 -1.15625q0.59375 -0.40625 1.359375 -0.40625q0.3125 0 0.546875 0.046875q0.25 0.046875 0.578125 0.15625l0 0.890625q-0.328125 -0.109375 -0.640625 -0.171875q-0.296875 -0.0625 -0.59375 -0.0625q-0.71875 0 -1.28125 0.375q-0.546875 0.359375 -0.84375 1.0625l0 3.515625l1.890625 0l0 0.796875l-4.65625 0zm12.293701 0.140625q-1.03125 0 -1.578125 -0.484375q-0.546875 -0.484375 -0.546875 -1.4375l0 -7.109375l-2.40625 0l0 -0.796875l3.390625 0l0 7.8125q0 0.609375 0.28125 0.875q0.296875 0.265625 0.875 0.265625q0.34375 0 0.703125 -0.0625q0.359375 -0.078125 0.796875 -0.25l0 0.875q-0.390625 0.125 -0.765625 0.21875q-0.375 0.09375 -0.75 0.09375zm6.1999817 -0.046875q-0.84375 0 -1.53125 -0.4375q-0.671875 -0.453125 -1.078125 -1.203125q-0.390625 -0.765625 -0.390625 -1.6875q0 -0.953125 0.40625 -1.703125q0.40625 -0.75 1.09375 -1.1875q0.703125 -0.453125 1.546875 -0.453125q0.609375 0 1.125 0.234375q0.515625 0.21875 0.90625 0.671875l0 -3.953125l0.96875 -0.203125l0 9.828125l-0.96875 0l0 -0.859375q-0.375 0.453125 -0.90625 0.703125q-0.53125 0.25 -1.171875 0.25zm0.234375 -0.859375q0.578125 0 1.046875 -0.21875q0.484375 -0.234375 0.796875 -0.640625l0 -3.21875q-0.328125 -0.421875 -0.8125 -0.65625q-0.484375 -0.234375 -1.03125 -0.234375q-0.65625 0 -1.171875 0.328125q-0.5 0.3125 -0.8125 0.875q-0.296875 0.5625 -0.296875 1.28125q0 0.703125 0.296875 1.28125q0.3125 0.5625 0.8125 0.890625q0.515625 0.3125 1.171875 0.3125zm8.028076 0.890625q-0.375 0 -0.625 -0.25q-0.25 -0.265625 -0.25 -0.625q0 -0.359375 0.25 -0.609375q0.25 -0.25 0.625 -0.25q0.375 0 0.609375 0.25q0.25 0.25 0.25 0.609375q0 0.359375 -0.25 0.625q-0.234375 0.25 -0.609375 0.25zm8.106232 0.015625q-0.921875 0 -1.671875 -0.453125q-0.734375 -0.453125 -1.171875 -1.203125q-0.421875 -0.765625 -0.421875 -1.71875q0 -0.96875 0.421875 -1.734375q0.4375 -0.765625 1.171875 -1.203125q0.75 -0.4375 1.671875 -0.4375q0.90625 0 1.640625 0.40625q0.734375 0.390625 1.15625 1.078125l-0.78125 0.484375q-0.3125 -0.5 -0.84375 -0.796875q-0.515625 -0.3125 -1.171875 -0.3125q-0.671875 0 -1.1875 0.328125q-0.515625 0.328125 -0.828125 0.890625q-0.296875 0.5625 -0.296875 1.296875q0 0.71875 0.296875 1.28125q0.3125 0.5625 0.828125 0.890625q0.515625 0.328125 1.1875 0.328125q0.65625 0 1.171875 -0.296875q0.53125 -0.296875 0.84375 -0.8125l0.78125 0.5q-0.421875 0.671875 -1.15625 1.078125q-0.734375 0.40625 -1.640625 0.40625zm5.090576 2.640625l0 -9.28125l0.953125 0l0 0.921875q0.375 -0.484375 0.90625 -0.734375q0.546875 -0.265625 1.203125 -0.265625q0.859375 0 1.53125 0.453125q0.671875 0.4375 1.0625 1.1875q0.40625 0.75 0.40625 1.6875q0 0.9375 -0.40625 1.703125q-0.40625 0.75 -1.09375 1.203125q-0.6875 0.4375 -1.546875 0.4375q-0.625 0 -1.140625 -0.234375q-0.515625 -0.234375 -0.90625 -0.671875l0 3.59375l-0.96875 0zm2.828125 -3.53125q0.640625 0 1.15625 -0.328125q0.515625 -0.328125 0.8125 -0.890625q0.296875 -0.5625 0.296875 -1.265625q0 -0.71875 -0.296875 -1.28125q-0.296875 -0.5625 -0.8125 -0.890625q-0.515625 -0.328125 -1.15625 -0.328125q-0.578125 0 -1.0625 0.234375q-0.484375 0.234375 -0.796875 0.65625l0 3.1875q0.328125 0.4375 0.8125 0.671875q0.484375 0.234375 1.046875 0.234375zm5.1687317 3.53125l0 -9.28125l0.953125 0l0 0.921875q0.375 -0.484375 0.90625 -0.734375q0.546875 -0.265625 1.203125 -0.265625q0.859375 0 1.53125 0.453125q0.671875 0.4375 1.0625 1.1875q0.40625 0.75 0.40625 1.6875q0 0.9375 -0.40625 1.703125q-0.40625 0.75 -1.09375 1.203125q-0.6875 0.4375 -1.546875 0.4375q-0.625 0 -1.140625 -0.234375q-0.515625 -0.234375 -0.90625 -0.671875l0 3.59375l-0.96875 0zm2.828125 -3.53125q0.640625 0 1.15625 -0.328125q0.515625 -0.328125 0.8125 -0.890625q0.296875 -0.5625 0.296875 -1.265625q0 -0.71875 -0.296875 -1.28125q-0.296875 -0.5625 -0.8125 -0.890625q-0.515625 -0.328125 -1.15625 -0.328125q-0.578125 0 -1.0625 0.234375q-0.484375 0.234375 -0.796875 0.65625l0 3.1875q0.328125 0.4375 0.8125 0.671875q0.484375 0.234375 1.046875 0.234375z" fill-rule="nonzero"/><path fill="#646485" d="m173.46056 301.35794q-0.703125 0 -1.265625 -0.25q-0.546875 -0.265625 -0.859375 -0.703125q-0.296875 -0.453125 -0.296875 -1.046875q0 -0.578125 0.3125 -1.015625q0.3125 -0.4375 0.875 -0.671875q0.578125 -0.25 1.3125 -0.25q0.59375 0 1.09375 0.109375q0.515625 0.109375 0.96875 0.375l0 -0.734375q0 -0.875 -0.4375 -1.3125q-0.4375 -0.4375 -1.3125 -0.4375q-0.484375 0 -0.984375 0.140625q-0.5 0.140625 -1.109375 0.484375l-0.390625 -0.734375q0.703125 -0.390625 1.34375 -0.546875q0.640625 -0.15625 1.265625 -0.15625q1.234375 0 1.90625 0.625q0.671875 0.625 0.671875 1.796875l0 4.1875l-0.953125 0l0 -0.75q-0.453125 0.453125 -0.984375 0.671875q-0.53125 0.21875 -1.15625 0.21875zm-1.484375 -2.015625q0 0.5625 0.46875 0.921875q0.46875 0.34375 1.21875 0.34375q0.578125 0 1.046875 -0.171875q0.46875 -0.1875 0.890625 -0.59375l0 -1.25q-0.421875 -0.25 -0.890625 -0.359375q-0.453125 -0.109375 -1.015625 -0.109375q-0.78125 0 -1.25 0.34375q-0.46875 0.328125 -0.46875 0.875zm9.809341 1.96875q-0.84375 0 -1.53125 -0.4375q-0.671875 -0.453125 -1.078125 -1.203125q-0.390625 -0.765625 -0.390625 -1.6875q0 -0.953125 0.40625 -1.703125q0.40625 -0.75 1.09375 -1.1875q0.703125 -0.453125 1.546875 -0.453125q0.609375 0 1.125 0.234375q0.515625 0.21875 0.90625 0.671875l0 -3.953125l0.96875 -0.203125l0 9.828125l-0.96875 0l0 -0.859375q-0.375 0.453125 -0.90625 0.703125q-0.53125 0.25 -1.171875 0.25zm0.234375 -0.859375q0.578125 0 1.046875 -0.21875q0.484375 -0.234375 0.796875 -0.640625l0 -3.21875q-0.328125 -0.421875 -0.8125 -0.65625q-0.484375 -0.234375 -1.03125 -0.234375q-0.65625 0 -1.171875 0.328125q-0.5 0.3125 -0.8125 0.875q-0.296875 0.5625 -0.296875 1.28125q0 0.703125 0.296875 1.28125q0.3125 0.5625 0.8125 0.890625q0.515625 0.3125 1.171875 0.3125zm7.7624664 0.859375q-0.84375 0 -1.53125 -0.4375q-0.671875 -0.453125 -1.078125 -1.203125q-0.390625 -0.765625 -0.390625 -1.6875q0 -0.953125 0.40625 -1.703125q0.40625 -0.75 1.09375 -1.1875q0.703125 -0.453125 1.546875 -0.453125q0.609375 0 1.125 0.234375q0.515625 0.21875 0.90625 0.671875l0 -3.953125l0.96875 -0.203125l0 9.828125l-0.96875 0l0 -0.859375q-0.375 0.453125 -0.90625 0.703125q-0.53125 0.25 -1.171875 0.25zm0.234375 -0.859375q0.578125 0 1.046875 -0.21875q0.484375 -0.234375 0.796875 -0.640625l0 -3.21875q-0.328125 -0.421875 -0.8125 -0.65625q-0.484375 -0.234375 -1.03125 -0.234375q-0.65625 0 -1.171875 0.328125q-0.5 0.3125 -0.8125 0.875q-0.296875 0.5625 -0.296875 1.28125q0 0.703125 0.296875 1.28125q0.3125 0.5625 0.8125 0.890625q0.515625 0.3125 1.171875 0.3125zm16.024933 0.890625q-0.375 0 -0.625 -0.25q-0.25 -0.265625 -0.25 -0.625q0 -0.359375 0.25 -0.609375q0.25 -0.25 0.625 -0.25q0.375 0 0.609375 0.25q0.25 0.25 0.25 0.609375q0 0.359375 -0.25 0.625q-0.234375 0.25 -0.609375 0.25zm8.028091 2.796875q-0.640625 0 -1.3125 -0.1875q-0.65625 -0.171875 -1.21875 -0.5l0.421875 -0.734375q0.59375 0.296875 1.078125 0.4375q0.5 0.15625 1.0 0.15625q1.8125 0 1.8125 -1.671875l0 -1.296875q-0.375 0.46875 -0.90625 0.71875q-0.53125 0.234375 -1.171875 0.234375q-0.84375 0 -1.53125 -0.4375q-0.671875 -0.453125 -1.078125 -1.203125q-0.390625 -0.75 -0.390625 -1.6875q0 -0.9375 0.40625 -1.6875q0.40625 -0.75 1.09375 -1.1875q0.703125 -0.453125 1.546875 -0.453125q0.609375 0 1.125 0.234375q0.53125 0.21875 0.921875 0.671875l0 -0.828125l0.953125 0l0 6.90625q0 1.21875 -0.703125 1.859375q-0.703125 0.65625 -2.046875 0.65625zm-0.0625 -3.6875q0.578125 0 1.046875 -0.21875q0.484375 -0.234375 0.796875 -0.65625l0 -3.203125q-0.328125 -0.421875 -0.8125 -0.65625q-0.484375 -0.234375 -1.03125 -0.234375q-0.65625 0 -1.171875 0.328125q-0.5 0.3125 -0.8125 0.875q-0.296875 0.5625 -0.296875 1.28125q0 0.703125 0.296875 1.28125q0.3125 0.5625 0.8125 0.890625q0.515625 0.3125 1.171875 0.3125zm7.9343414 -7.28125q-0.34375 0 -0.59375 -0.25q-0.25 -0.25 -0.25 -0.578125q0 -0.34375 0.25 -0.578125q0.25 -0.25 0.59375 -0.25q0.34375 0 0.59375 0.25q0.25 0.234375 0.25 0.578125q0 0.328125 -0.25 0.578125q-0.25 0.25 -0.59375 0.25zm1.625 8.1875q-1.03125 0 -1.578125 -0.484375q-0.546875 -0.484375 -0.546875 -1.4375l0 -3.921875l-2.40625 0l0 -0.796875l3.390625 0l0 4.625q0 0.609375 0.28125 0.875q0.296875 0.265625 0.875 0.265625q0.34375 0 0.703125 -0.0625q0.359375 -0.078125 0.796875 -0.25l0 0.875q-0.390625 0.125 -0.765625 0.21875q-0.375 0.09375 -0.75 0.09375zm7.5280914 0q-1.09375 0 -1.671875 -0.46875q-0.578125 -0.484375 -0.578125 -1.390625l0 -3.984375l-2.21875 0l0 -0.796875l2.21875 0l0 -1.796875l0.96875 -0.21875l0 2.015625l3.0 0l0 0.796875l-3.0 0l0 3.828125q0 0.609375 0.328125 0.875q0.34375 0.265625 0.96875 0.265625q0.390625 0 0.796875 -0.078125q0.421875 -0.078125 0.90625 -0.265625l0 0.875q-0.4375 0.15625 -0.875 0.25q-0.421875 0.09375 -0.84375 0.09375zm6.8405914 -8.1875q-0.34375 0 -0.59375 -0.25q-0.25 -0.25 -0.25 -0.578125q0 -0.34375 0.25 -0.578125q0.25 -0.25 0.59375 -0.25q0.34375 0 0.59375 0.25q0.25 0.234375 0.25 0.578125q0 0.328125 -0.25 0.578125q-0.25 0.25 -0.59375 0.25zm1.625 8.1875q-1.03125 0 -1.578125 -0.484375q-0.546875 -0.484375 -0.546875 -1.4375l0 -3.921875l-2.40625 0l0 -0.796875l3.390625 0l0 4.625q0 0.609375 0.28125 0.875q0.296875 0.265625 0.875 0.265625q0.34375 0 0.703125 -0.0625q0.359375 -0.078125 0.796875 -0.25l0 0.875q-0.390625 0.125 -0.765625 0.21875q-0.375 0.09375 -0.75 0.09375zm6.4968414 2.78125q-0.640625 0 -1.3125 -0.1875q-0.65625 -0.171875 -1.21875 -0.5l0.421875 -0.734375q0.59375 0.296875 1.078125 0.4375q0.5 0.15625 1.0 0.15625q1.8125 0 1.8125 -1.671875l0 -1.296875q-0.375 0.46875 -0.90625 0.71875q-0.53125 0.234375 -1.171875 0.234375q-0.84375 0 -1.53125 -0.4375q-0.671875 -0.453125 -1.078125 -1.203125q-0.390625 -0.75 -0.390625 -1.6875q0 -0.9375 0.40625 -1.6875q0.40625 -0.75 1.09375 -1.1875q0.703125 -0.453125 1.546875 -0.453125q0.609375 0 1.125 0.234375q0.53125 0.21875 0.921875 0.671875l0 -0.828125l0.953125 0l0 6.90625q0 1.21875 -0.703125 1.859375q-0.703125 0.65625 -2.046875 0.65625zm-0.0625 -3.6875q0.578125 0 1.046875 -0.21875q0.484375 -0.234375 0.796875 -0.65625l0 -3.203125q-0.328125 -0.421875 -0.8125 -0.65625q-0.484375 -0.234375 -1.03125 -0.234375q-0.65625 0 -1.171875 0.328125q-0.5 0.3125 -0.8125 0.875q-0.296875 0.5625 -0.296875 1.28125q0 0.703125 0.296875 1.28125q0.3125 0.5625 0.8125 0.890625q0.515625 0.3125 1.171875 0.3125zm5.3405914 0.765625l0 -6.5l0.984375 0l0 1.046875q0.734375 -1.15625 2.0625 -1.15625q0.703125 0 1.234375 0.296875q0.53126526 0.296875 0.82814026 0.84375q0.296875 0.53125 0.296875 1.25l0 4.21875l-0.96876526 0l0 -3.9375q0 -0.859375 -0.484375 -1.359375q-0.46875 -0.5 -1.265625 -0.5q-0.53125 0 -0.984375 0.25q-0.4375 0.25 -0.71875 0.75l0 4.796875l-0.984375 0zm10.684341 0.140625q-0.890625 0 -1.609375 -0.453125q-0.71875 -0.453125 -1.140625 -1.203125q-0.40625 -0.765625 -0.40625 -1.71875q0 -0.96875 0.40625 -1.734375q0.421875 -0.765625 1.140625 -1.203125q0.71875 -0.4375 1.609375 -0.4375q0.890625 0 1.59375 0.4375q0.71875 0.4375 1.140625 1.203125q0.421875 0.765625 0.421875 1.734375q0 0.953125 -0.421875 1.71875q-0.421875 0.75 -1.140625 1.203125q-0.703125 0.453125 -1.59375 0.453125zm0 -0.875q0.640625 0 1.125 -0.328125q0.5 -0.328125 0.78125 -0.890625q0.296875 -0.5625 0.296875 -1.296875q0 -0.71875 -0.296875 -1.28125q-0.28125 -0.5625 -0.78125 -0.890625q-0.484375 -0.328125 -1.125 -0.328125q-0.640625 0 -1.140625 0.328125q-0.484375 0.328125 -0.78125 0.890625q-0.28125 0.5625 -0.28125 1.28125q0 0.734375 0.28125 1.296875q0.296875 0.5625 0.78125 0.890625q0.5 0.328125 1.140625 0.328125zm5.2312317 0.734375l0 -0.796875l1.796875 0l0 -4.90625l-1.796875 0l0 -0.796875l2.765625 0l0 1.453125q0.296875 -0.75 0.875 -1.15625q0.59375 -0.40625 1.359375 -0.40625q0.3125 0 0.546875 0.046875q0.25 0.046875 0.578125 0.15625l0 0.890625q-0.328125 -0.109375 -0.640625 -0.171875q-0.296875 -0.0625 -0.59375 -0.0625q-0.71875 0 -1.28125 0.375q-0.546875 0.359375 -0.84375 1.0625l0 3.515625l1.890625 0l0 0.796875l-4.65625 0zm10.918701 0.140625q-0.9375 0 -1.6875 -0.453125q-0.734375 -0.453125 -1.171875 -1.21875q-0.4375 -0.765625 -0.4375 -1.71875q0 -0.96875 0.40625 -1.71875q0.421875 -0.765625 1.140625 -1.203125q0.71875 -0.4375 1.59375 -0.4375q0.921875 0 1.640625 0.4375q0.71875 0.421875 1.125 1.171875q0.421875 0.734375 0.421875 1.671875l0 0.296875l-5.375 0q0.046875 0.65625 0.359375 1.1875q0.328125 0.53125 0.859375 0.828125q0.53125 0.296875 1.171875 0.296875q0.5625 0 1.0625 -0.21875q0.5 -0.21875 0.84375 -0.609375l0.671875 0.59375q-0.515625 0.546875 -1.1875 0.828125q-0.65625 0.265625 -1.4375 0.265625zm-2.3125 -3.90625l4.375 0q-0.078125 -0.578125 -0.390625 -1.03125q-0.3125 -0.453125 -0.78125 -0.703125q-0.46875 -0.265625 -1.0625 -0.265625q-0.546875 0 -1.0 0.25q-0.453125 0.25 -0.75 0.703125q-0.296875 0.453125 -0.390625 1.046875z" fill-rule="nonzero"/><path fill="#fffce5" d="m512.388 217.44882l0 0c0 -25.38771 22.047363 -45.968506 49.24414 -45.968506l0 0c27.196716 0 49.24408 20.580795 49.24408 45.968506l0 0c0 25.387695 -22.047363 45.968506 -49.24408 45.968506l0 0c-27.196777 0 -49.24414 -20.58081 -49.24414 -45.968506z" fill-rule="evenodd"/><path stroke="#f9df9c" stroke-width="4.0" stroke-linejoin="round" stroke-linecap="butt" d="m512.388 217.44882l0 0c0 -25.38771 22.047363 -45.968506 49.24414 -45.968506l0 0c27.196716 0 49.24408 20.580795 49.24408 45.968506l0 0c0 25.387695 -22.047363 45.968506 -49.24408 45.968506l0 0c-27.196777 0 -49.24414 -20.58081 -49.24414 -45.968506z" fill-rule="evenodd"/><path fill="#000000" fill-opacity="0.0" d="m423.17474 217.44882l73.858246 0" fill-rule="evenodd"/><path stroke="#476a97" stroke-width="3.0" stroke-linejoin="round" stroke-linecap="butt" d="m423.17474 217.44882l55.858276 0" fill-rule="evenodd"/><path fill="#476a97" stroke="#476a97" stroke-width="3.0" stroke-linecap="butt" d="m479.03302 222.40402l13.614288 -4.9552l-13.614288 -4.9552z" fill-rule="evenodd"/><path fill="#000000" fill-opacity="0.0" d="m367.98618 263.41733l212.47244 0l0 51.716522l-212.47244 0z" fill-rule="evenodd"/><path fill="#646485" d="m380.6268 285.3267q-0.6875 0 -1.234375 -0.296875q-0.53125 -0.3125 -0.828125 -0.859375q-0.296875 -0.546875 -0.296875 -1.265625l0 -4.1875l0.984375 0l0 3.921875q0 0.859375 0.46875 1.375q0.46875 0.5 1.265625 0.5q0.546875 0 0.96875 -0.25q0.4375 -0.265625 0.734375 -0.734375l0 -4.8125l0.96875 0l0 6.5l-0.96875 0l0 -1.046875q-0.734375 1.15625 -2.0625 1.15625zm5.559326 2.671875l0 -9.28125l0.953125 0l0 0.921875q0.375 -0.484375 0.90625 -0.734375q0.546875 -0.265625 1.203125 -0.265625q0.859375 0 1.53125 0.453125q0.671875 0.4375 1.0625 1.1875q0.40625 0.75 0.40625 1.6875q0 0.9375 -0.40625 1.703125q-0.40625 0.75 -1.09375 1.203125q-0.6875 0.4375 -1.546875 0.4375q-0.625 0 -1.140625 -0.234375q-0.515625 -0.234375 -0.90625 -0.671875l0 3.59375l-0.96875 0zm2.828125 -3.53125q0.640625 0 1.15625 -0.328125q0.515625 -0.328125 0.8125 -0.890625q0.296875 -0.5625 0.296875 -1.265625q0 -0.71875 -0.296875 -1.28125q-0.296875 -0.5625 -0.8125 -0.890625q-0.515625 -0.328125 -1.15625 -0.328125q-0.578125 0 -1.0625 0.234375q-0.484375 0.234375 -0.796875 0.65625l0 3.1875q0.328125 0.4375 0.8125 0.671875q0.484375 0.234375 1.046875 0.234375zm7.6999817 0.84375q-0.84375 0 -1.53125 -0.4375q-0.671875 -0.453125 -1.078125 -1.203125q-0.390625 -0.765625 -0.390625 -1.6875q0 -0.953125 0.40625 -1.703125q0.40625 -0.75 1.09375 -1.1875q0.703125 -0.453125 1.546875 -0.453125q0.609375 0 1.125 0.234375q0.515625 0.21875 0.90625 0.671875l0 -3.953125l0.96875 -0.203125l0 9.828125l-0.96875 0l0 -0.859375q-0.375 0.453125 -0.90625 0.703125q-0.53125 0.25 -1.171875 0.25zm0.234375 -0.859375q0.578125 0 1.046875 -0.21875q0.484375 -0.234375 0.796875 -0.640625l0 -3.21875q-0.328125 -0.421875 -0.8125 -0.65625q-0.484375 -0.234375 -1.03125 -0.234375q-0.65625 0 -1.171875 0.328125q-0.5 0.3125 -0.8125 0.875q-0.296875 0.5625 -0.296875 1.28125q0 0.703125 0.296875 1.28125q0.3125 0.5625 0.8125 0.890625q0.515625 0.3125 1.171875 0.3125zm7.434326 0.90625q-0.703125 0 -1.265625 -0.25q-0.546875 -0.265625 -0.859375 -0.703125q-0.296875 -0.453125 -0.296875 -1.046875q0 -0.578125 0.3125 -1.015625q0.3125 -0.4375 0.875 -0.671875q0.578125 -0.25 1.3125 -0.25q0.59375 0 1.09375 0.109375q0.515625 0.109375 0.96875 0.375l0 -0.734375q0 -0.875 -0.4375 -1.3125q-0.4375 -0.4375 -1.3125 -0.4375q-0.484375 0 -0.984375 0.140625q-0.5 0.140625 -1.109375 0.484375l-0.390625 -0.734375q0.703125 -0.390625 1.34375 -0.546875q0.640625 -0.15625 1.265625 -0.15625q1.234375 0 1.90625 0.625q0.671875 0.625 0.671875 1.796875l0 4.1875l-0.953125 0l0 -0.75q-0.453125 0.453125 -0.984375 0.671875q-0.53125 0.21875 -1.15625 0.21875zm-1.484375 -2.015625q0 0.5625 0.46875 0.921875q0.46875 0.34375 1.21875 0.34375q0.578125 0 1.046875 -0.171875q0.46875 -0.1875 0.890625 -0.59375l0 -1.25q-0.421875 -0.25 -0.890625 -0.359375q-0.453125 -0.109375 -1.015625 -0.109375q-0.78125 0 -1.25 0.34375q-0.46875 0.328125 -0.46875 0.875zm11.137482 2.015625q-1.09375 0 -1.671875 -0.46875q-0.578125 -0.484375 -0.578125 -1.390625l0 -3.984375l-2.21875 0l0 -0.796875l2.21875 0l0 -1.796875l0.96875 -0.21875l0 2.015625l3.0 0l0 0.796875l-3.0 0l0 3.828125q0 0.609375 0.328125 0.875q0.34375 0.265625 0.96875 0.265625q0.390625 0 0.796875 -0.078125q0.421875 -0.078125 0.90625 -0.265625l0 0.875q-0.4375 0.15625 -0.875 0.25q-0.421875 0.09375 -0.84375 0.09375zm7.090576 0q-0.9375 0 -1.6875 -0.453125q-0.734375 -0.453125 -1.171875 -1.21875q-0.4375 -0.765625 -0.4375 -1.71875q0 -0.96875 0.40625 -1.71875q0.421875 -0.765625 1.140625 -1.203125q0.71875 -0.4375 1.59375 -0.4375q0.921875 0 1.640625 0.4375q0.71875 0.421875 1.125 1.171875q0.421875 0.734375 0.421875 1.671875l0 0.296875l-5.375 0q0.046875 0.65625 0.359375 1.1875q0.328125 0.53125 0.859375 0.828125q0.53125 0.296875 1.171875 0.296875q0.5625 0 1.0625 -0.21875q0.5 -0.21875 0.84375 -0.609375l0.671875 0.59375q-0.515625 0.546875 -1.1875 0.828125q-0.65625 0.265625 -1.4375 0.265625zm-2.3125 -3.90625l4.375 0q-0.078125 -0.578125 -0.390625 -1.03125q-0.3125 -0.453125 -0.78125 -0.703125q-0.46875 -0.265625 -1.0625 -0.265625q-0.546875 0 -1.0 0.25q-0.453125 0.25 -0.75 0.703125q-0.296875 0.453125 -0.390625 1.046875zm15.462433 3.765625l0 -9.625l0.984375 -0.203125l0 4.375q0.734375 -1.15625 2.0625 -1.15625q0.703125 0 1.234375 0.296875q0.53125 0.296875 0.828125 0.84375q0.296875 0.53125 0.296875 1.25l0 4.21875l-0.96875 0l0 -3.9375q0 -0.859375 -0.484375 -1.359375q-0.46875 -0.5 -1.265625 -0.5q-0.53125 0 -0.984375 0.25q-0.4375 0.25 -0.71875 0.75l0 4.796875l-0.984375 0zm10.840607 0.140625q-0.9375 0 -1.6875 -0.453125q-0.734375 -0.453125 -1.171875 -1.21875q-0.4375 -0.765625 -0.4375 -1.71875q0 -0.96875 0.40625 -1.71875q0.421875 -0.765625 1.140625 -1.203125q0.71875 -0.4375 1.59375 -0.4375q0.921875 0 1.640625 0.4375q0.71875 0.421875 1.125 1.171875q0.421875 0.734375 0.421875 1.671875l0 0.296875l-5.375 0q0.046875 0.65625 0.359375 1.1875q0.328125 0.53125 0.859375 0.828125q0.53125 0.296875 1.171875 0.296875q0.5625 0 1.0625 -0.21875q0.5 -0.21875 0.84375 -0.609375l0.671875 0.59375q-0.515625 0.546875 -1.1875 0.828125q-0.65625 0.265625 -1.4375 0.265625zm-2.3125 -3.90625l4.375 0q-0.078125 -0.578125 -0.390625 -1.03125q-0.3125 -0.453125 -0.78125 -0.703125q-0.46875 -0.265625 -1.0625 -0.265625q-0.546875 0 -1.0 0.25q-0.453125 0.25 -0.75 0.703125q-0.296875 0.453125 -0.390625 1.046875zm11.684326 3.90625q-1.03125 0 -1.578125 -0.484375q-0.546875 -0.484375 -0.546875 -1.4375l0 -7.109375l-2.40625 0l0 -0.796875l3.390625 0l0 7.8125q0 0.609375 0.28125 0.875q0.296875 0.265625 0.875 0.265625q0.34375 0 0.703125 -0.0625q0.359375 -0.078125 0.796875 -0.25l0 0.875q-0.390625 0.125 -0.765625 0.21875q-0.375 0.09375 -0.75 0.09375zm7.9968567 0q-1.03125 0 -1.578125 -0.484375q-0.546875 -0.484375 -0.546875 -1.4375l0 -7.109375l-2.40625 0l0 -0.796875l3.390625 0l0 7.8125q0 0.609375 0.28125 0.875q0.296875 0.265625 0.875 0.265625q0.34375 0 0.703125 -0.0625q0.359375 -0.078125 0.796875 -0.25l0 0.875q-0.390625 0.125 -0.765625 0.21875q-0.375 0.09375 -0.75 0.09375zm6.465576 0q-0.890625 0 -1.609375 -0.453125q-0.71875 -0.453125 -1.140625 -1.203125q-0.40625 -0.765625 -0.40625 -1.71875q0 -0.96875 0.40625 -1.734375q0.421875 -0.765625 1.140625 -1.203125q0.71875 -0.4375 1.609375 -0.4375q0.890625 0 1.59375 0.4375q0.71875 0.4375 1.140625 1.203125q0.421875 0.765625 0.421875 1.734375q0 0.953125 -0.421875 1.71875q-0.421875 0.75 -1.140625 1.203125q-0.703125 0.453125 -1.59375 0.453125zm0 -0.875q0.640625 0 1.125 -0.328125q0.5 -0.328125 0.78125 -0.890625q0.296875 -0.5625 0.296875 -1.296875q0 -0.71875 -0.296875 -1.28125q-0.28125 -0.5625 -0.78125 -0.890625q-0.484375 -0.328125 -1.125 -0.328125q-0.640625 0 -1.140625 0.328125q-0.484375 0.328125 -0.78125 0.890625q-0.28125 0.5625 -0.28125 1.28125q0 0.734375 0.28125 1.296875q0.296875 0.5625 0.78125 0.890625q0.5 0.328125 1.140625 0.328125zm4.9343567 2.5625l0 -0.765625l6.125 0l0 0.765625l-6.125 0zm8.856201 -1.828125l-1.296875 -6.5l0.875 0l0.921875 5.15625l1.296875 -5.15625l0.875 0l1.3125 5.15625l0.90625 -5.15625l0.796875 0l-1.28125 6.5l-0.890625 0l-1.296875 -5.234375l-1.3125 5.234375l-0.90625 0zm10.199982 0.140625q-0.890625 0 -1.609375 -0.453125q-0.71875 -0.453125 -1.140625 -1.203125q-0.40625 -0.765625 -0.40625 -1.71875q0 -0.96875 0.40625 -1.734375q0.421875 -0.765625 1.140625 -1.203125q0.71875 -0.4375 1.609375 -0.4375q0.890625 0 1.59375 0.4375q0.71875 0.4375 1.140625 1.203125q0.421875 0.765625 0.421875 1.734375q0 0.953125 -0.421875 1.71875q-0.421875 0.75 -1.140625 1.203125q-0.703125 0.453125 -1.59375 0.453125zm0 -0.875q0.640625 0 1.125 -0.328125q0.5 -0.328125 0.78125 -0.890625q0.296875 -0.5625 0.296875 -1.296875q0 -0.71875 -0.296875 -1.28125q-0.28125 -0.5625 -0.78125 -0.890625q-0.484375 -0.328125 -1.125 -0.328125q-0.640625 0 -1.140625 0.328125q-0.484375 0.328125 -0.78125 0.890625q-0.28125 0.5625 -0.28125 1.28125q0 0.734375 0.28125 1.296875q0.296875 0.5625 0.78125 0.890625q0.5 0.328125 1.140625 0.328125zm5.231201 0.734375l0 -0.796875l1.796875 0l0 -4.90625l-1.796875 0l0 -0.796875l2.765625 0l0 1.453125q0.296875 -0.75 0.875 -1.15625q0.59375 -0.40625 1.359375 -0.40625q0.3125 0 0.546875 0.046875q0.25 0.046875 0.578125 0.15625l0 0.890625q-0.328125 -0.109375 -0.640625 -0.171875q-0.296875 -0.0625 -0.59375 -0.0625q-0.71875 0 -1.28125 0.375q-0.546875 0.359375 -0.84375 1.0625l0 3.515625l1.890625 0l0 0.796875l-4.65625 0zm12.293732 0.140625q-1.03125 0 -1.578125 -0.484375q-0.546875 -0.484375 -0.546875 -1.4375l0 -7.109375l-2.40625 0l0 -0.796875l3.390625 0l0 7.8125q0 0.609375 0.28125 0.875q0.296875 0.265625 0.875 0.265625q0.34375 0 0.703125 -0.0625q0.359375 -0.078125 0.796875 -0.25l0 0.875q-0.390625 0.125 -0.765625 0.21875q-0.375 0.09375 -0.75 0.09375zm6.1999817 -0.046875q-0.84375 0 -1.53125 -0.4375q-0.671875 -0.453125 -1.078125 -1.203125q-0.390625 -0.765625 -0.390625 -1.6875q0 -0.953125 0.40625 -1.703125q0.40625 -0.75 1.09375 -1.1875q0.703125 -0.453125 1.546875 -0.453125q0.609375 0 1.125 0.234375q0.515625 0.21875 0.90625 0.671875l0 -3.953125l0.96875 -0.203125l0 9.828125l-0.96875 0l0 -0.859375q-0.375 0.453125 -0.90625 0.703125q-0.53125 0.25 -1.171875 0.25zm0.234375 -0.859375q0.578125 0 1.046875 -0.21875q0.484375 -0.234375 0.796875 -0.640625l0 -3.21875q-0.328125 -0.421875 -0.8125 -0.65625q-0.484375 -0.234375 -1.03125 -0.234375q-0.65625 0 -1.171875 0.328125q-0.5 0.3125 -0.8125 0.875q-0.296875 0.5625 -0.296875 1.28125q0 0.703125 0.296875 1.28125q0.3125 0.5625 0.8125 0.890625q0.515625 0.3125 1.171875 0.3125zm8.028076 0.890625q-0.375 0 -0.625 -0.25q-0.25 -0.265625 -0.25 -0.625q0 -0.359375 0.25 -0.609375q0.25 -0.25 0.625 -0.25q0.375 0 0.609375 0.25q0.25 0.25 0.25 0.609375q0 0.359375 -0.25 0.625q-0.234375 0.25 -0.609375 0.25zm8.106201 0.015625q-0.921875 0 -1.671875 -0.453125q-0.734375 -0.453125 -1.171875 -1.203125q-0.421875 -0.765625 -0.421875 -1.71875q0 -0.96875 0.421875 -1.734375q0.4375 -0.765625 1.171875 -1.203125q0.75 -0.4375 1.671875 -0.4375q0.90625 0 1.640625 0.40625q0.734375 0.390625 1.15625 1.078125l-0.78125 0.484375q-0.3125 -0.5 -0.84375 -0.796875q-0.515625 -0.3125 -1.171875 -0.3125q-0.671875 0 -1.1875 0.328125q-0.515625 0.328125 -0.828125 0.890625q-0.296875 0.5625 -0.296875 1.296875q0 0.71875 0.296875 1.28125q0.3125 0.5625 0.828125 0.890625q0.515625 0.328125 1.1875 0.328125q0.65625 0 1.171875 -0.296875q0.53125 -0.296875 0.84375 -0.8125l0.78125 0.5q-0.421875 0.671875 -1.15625 1.078125q-0.734375 0.40625 -1.640625 0.40625zm5.090576 2.640625l0 -9.28125l0.953125 0l0 0.921875q0.375 -0.484375 0.90625 -0.734375q0.546875 -0.265625 1.203125 -0.265625q0.859375 0 1.53125 0.453125q0.671875 0.4375 1.0625 1.1875q0.40625 0.75 0.40625 1.6875q0 0.9375 -0.40625 1.703125q-0.40625 0.75 -1.09375 1.203125q-0.6875 0.4375 -1.546875 0.4375q-0.625 0 -1.140625 -0.234375q-0.515625 -0.234375 -0.90625 -0.671875l0 3.59375l-0.96875 0zm2.828125 -3.53125q0.640625 0 1.15625 -0.328125q0.515625 -0.328125 0.8125 -0.890625q0.296875 -0.5625 0.296875 -1.265625q0 -0.71875 -0.296875 -1.28125q-0.296875 -0.5625 -0.8125 -0.890625q-0.515625 -0.328125 -1.15625 -0.328125q-0.578125 0 -1.0625 0.234375q-0.484375 0.234375 -0.796875 0.65625l0 3.1875q0.328125 0.4375 0.8125 0.671875q0.484375 0.234375 1.046875 0.234375zm5.168762 3.53125l0 -9.28125l0.953125 0l0 0.921875q0.375 -0.484375 0.90625 -0.734375q0.546875 -0.265625 1.203125 -0.265625q0.859375 0 1.53125 0.453125q0.671875 0.4375 1.0625 1.1875q0.40625 0.75 0.40625 1.6875q0 0.9375 -0.40625 1.703125q-0.40625 0.75 -1.09375 1.203125q-0.6875 0.4375 -1.546875 0.4375q-0.625 0 -1.140625 -0.234375q-0.515625 -0.234375 -0.90625 -0.671875l0 3.59375l-0.96875 0zm2.828125 -3.53125q0.640625 0 1.15625 -0.328125q0.515625 -0.328125 0.8125 -0.890625q0.296875 -0.5625 0.296875 -1.265625q0 -0.71875 -0.296875 -1.28125q-0.296875 -0.5625 -0.8125 -0.890625q-0.515625 -0.328125 -1.15625 -0.328125q-0.578125 0 -1.0625 0.234375q-0.484375 0.234375 -0.796875 0.65625l0 3.1875q0.328125 0.4375 0.8125 0.671875q0.484375 0.234375 1.046875 0.234375z" fill-rule="nonzero"/><path fill="#fffce5" d="m664.8848 138.08398l0 0c0 -25.387695 22.047363 -45.9685 49.24408 -45.9685l0 0c27.196777 0 49.24414 20.580803 49.24414 45.9685l0 0c0 25.38771 -22.047363 45.968506 -49.24414 45.968506l0 0c-27.196716 0 -49.24408 -20.580795 -49.24408 -45.968506z" fill-rule="evenodd"/><path stroke="#f9df9c" stroke-width="4.0" stroke-linejoin="round" stroke-linecap="butt" d="m664.8848 138.08398l0 0c0 -25.387695 22.047363 -45.9685 49.24408 -45.9685l0 0c27.196777 0 49.24414 20.580803 49.24414 45.9685l0 0c0 25.38771 -22.047363 45.968506 -49.24414 45.968506l0 0c-27.196716 0 -49.24408 -20.580795 -49.24408 -45.968506z" fill-rule="evenodd"/><path fill="#000000" fill-opacity="0.0" d="m623.61993 183.87401l30.960632 -16.503937" fill-rule="evenodd"/><path stroke="#476a97" stroke-width="3.0" stroke-linejoin="round" stroke-linecap="butt" d="m623.61993 183.87401l15.076477 -8.036697" fill-rule="evenodd"/><path fill="#476a97" stroke="#476a97" stroke-width="3.0" stroke-linecap="butt" d="m641.02734 180.21004l9.683044 -10.7769165l-14.34491 2.0314636z" fill-rule="evenodd"/><path fill="#000000" fill-opacity="0.0" d="m620.5594 246.53543l30.960632 16.503937" fill-rule="evenodd"/><path stroke="#476a97" stroke-width="3.0" stroke-linejoin="round" stroke-linecap="butt" d="m620.5594 246.53543l15.076477 8.036713" fill-rule="evenodd"/><path fill="#476a97" stroke="#476a97" stroke-width="3.0" stroke-linecap="butt" d="m633.30493 258.94485l14.34491 2.0314636l-9.683044 -10.776901z" fill-rule="evenodd"/><path fill="#000000" fill-opacity="0.0" d="m522.34717 133.8084l366.2992 0l0 35.55905l-366.2992 0z" fill-rule="evenodd"/><path fill="#646485" d="m532.6128 155.6084l0 -9.328125l2.84375 0q0.84375 0 1.46875 0.296875q0.640625 0.28125 0.984375 0.828125q0.359375 0.53125 0.359375 1.25q0 0.765625 -0.453125 1.328125q-0.4375 0.546875 -1.203125 0.78125q0.9375 0.203125 1.46875 0.796875q0.546875 0.59375 0.546875 1.46875q0 0.765625 -0.375 1.359375q-0.375 0.578125 -1.0625 0.90625q-0.671875 0.3125 -1.59375 0.3125l-2.984375 0zm1.03125 -5.25l1.734375 0q0.84375 0 1.34375 -0.4375q0.515625 -0.4375 0.515625 -1.15625q0 -0.734375 -0.515625 -1.171875q-0.5 -0.4375 -1.34375 -0.4375l-1.734375 0l0 3.203125zm0 4.375l1.84375 0q0.953125 0 1.515625 -0.484375q0.578125 -0.484375 0.578125 -1.296875q0 -0.796875 -0.5625 -1.265625q-0.5625 -0.484375 -1.53125 -0.484375l-1.84375 0l0 3.53125zm6.934326 0.875l0 -0.796875l1.796875 0l0 -4.90625l-1.796875 0l0 -0.796875l2.765625 0l0 1.453125q0.296875 -0.75 0.875 -1.15625q0.59375 -0.40625 1.359375 -0.40625q0.3125 0 0.546875 0.046875q0.25 0.046875 0.578125 0.15625l0 0.890625q-0.328125 -0.109375 -0.640625 -0.171875q-0.296875 -0.0625 -0.59375 -0.0625q-0.71875 0 -1.28125 0.375q-0.546875 0.359375 -0.84375 1.0625l0 3.515625l1.890625 0l0 0.796875l-4.65625 0zm10.168701 0.140625q-0.703125 0 -1.265625 -0.25q-0.546875 -0.265625 -0.859375 -0.703125q-0.296875 -0.453125 -0.296875 -1.046875q0 -0.578125 0.3125 -1.015625q0.3125 -0.4375 0.875 -0.671875q0.578125 -0.25 1.3125 -0.25q0.59375 0 1.09375 0.109375q0.515625 0.109375 0.96875 0.375l0 -0.734375q0 -0.875 -0.4375 -1.3125q-0.4375 -0.4375 -1.3125 -0.4375q-0.484375 0 -0.984375 0.140625q-0.5 0.140625 -1.109375 0.484375l-0.390625 -0.734375q0.703125 -0.390625 1.34375 -0.546875q0.640625 -0.15625 1.265625 -0.15625q1.234375 0 1.90625 0.625q0.671875 0.625 0.671875 1.796875l0 4.1875l-0.953125 0l0 -0.75q-0.453125 0.453125 -0.984375 0.671875q-0.53125 0.21875 -1.15625 0.21875zm-1.484375 -2.015625q0 0.5625 0.46875 0.921875q0.46875 0.34375 1.21875 0.34375q0.578125 0 1.046875 -0.171875q0.46875 -0.1875 0.890625 -0.59375l0 -1.25q-0.421875 -0.25 -0.890625 -0.359375q-0.453125 -0.109375 -1.015625 -0.109375q-0.78125 0 -1.25 0.34375q-0.46875 0.328125 -0.46875 0.875zm7.387512 1.875l0 -6.5l0.984375 0l0 1.046875q0.734375 -1.15625 2.0625 -1.15625q0.703125 0 1.234375 0.296875q0.53125 0.296875 0.828125 0.84375q0.296875 0.53125 0.296875 1.25l0 4.21875l-0.96875 0l0 -3.9375q0 -0.859375 -0.484375 -1.359375q-0.46875 -0.5 -1.265625 -0.5q-0.53125 0 -0.984375 0.25q-0.4375 0.25 -0.71875 0.75l0 4.796875l-0.984375 0zm10.793701 0.140625q-0.921875 0 -1.671875 -0.453125q-0.734375 -0.453125 -1.171875 -1.203125q-0.421875 -0.765625 -0.421875 -1.71875q0 -0.96875 0.421875 -1.734375q0.4375 -0.765625 1.171875 -1.203125q0.75 -0.4375 1.671875 -0.4375q0.90625 0 1.640625 0.40625q0.734375 0.390625 1.15625 1.078125l-0.78125 0.484375q-0.3125 -0.5 -0.84375 -0.796875q-0.515625 -0.3125 -1.171875 -0.3125q-0.671875 0 -1.1875 0.328125q-0.515625 0.328125 -0.828125 0.890625q-0.296875 0.5625 -0.296875 1.296875q0 0.71875 0.296875 1.28125q0.3125 0.5625 0.828125 0.890625q0.515625 0.328125 1.1875 0.328125q0.65625 0 1.171875 -0.296875q0.53125 -0.296875 0.84375 -0.8125l0.78125 0.5q-0.421875 0.671875 -1.15625 1.078125q-0.734375 0.40625 -1.640625 0.40625zm5.199951 -0.140625l0 -9.625l0.984375 -0.203125l0 4.375q0.734375 -1.15625 2.0625 -1.15625q0.703125 0 1.234375 0.296875q0.53125 0.296875 0.828125 0.84375q0.296875 0.53125 0.296875 1.25l0 4.21875l-0.96875 0l0 -3.9375q0 -0.859375 -0.484375 -1.359375q-0.46875 -0.5 -1.265625 -0.5q-0.53125 0 -0.984375 0.25q-0.4375 0.25 -0.71875 0.75l0 4.796875l-0.984375 0zm18.837463 0.140625q-0.9375 0 -1.6875 -0.453125q-0.734375 -0.453125 -1.171875 -1.21875q-0.4375 -0.765625 -0.4375 -1.71875q0 -0.96875 0.40625 -1.71875q0.421875 -0.765625 1.140625 -1.203125q0.71875 -0.4375 1.59375 -0.4375q0.921875 0 1.640625 0.4375q0.71875 0.421875 1.125 1.171875q0.421875 0.734375 0.421875 1.671875l0 0.296875l-5.375 0q0.046875 0.65625 0.359375 1.1875q0.328125 0.53125 0.859375 0.828125q0.53125 0.296875 1.171875 0.296875q0.5625 0 1.0625 -0.21875q0.5 -0.21875 0.84375 -0.609375l0.671875 0.59375q-0.515625 0.546875 -1.1875 0.828125q-0.65625 0.265625 -1.4375 0.265625zm-2.3125 -3.90625l4.375 0q-0.078125 -0.578125 -0.390625 -1.03125q-0.3125 -0.453125 -0.78125 -0.703125q-0.46875 -0.265625 -1.0625 -0.265625q-0.546875 0 -1.0 0.25q-0.453125 0.25 -0.75 0.703125q-0.296875 0.453125 -0.390625 1.046875zm9.684326 3.765625l-2.796875 -6.5l1.046875 0l2.25 5.390625l2.1875 -5.390625l1.046875 0l-2.796875 6.5l-0.9375 0zm8.621826 0.140625q-0.9375 0 -1.6875 -0.453125q-0.734375 -0.453125 -1.171875 -1.21875q-0.4375 -0.765625 -0.4375 -1.71875q0 -0.96875 0.40625 -1.71875q0.421875 -0.765625 1.140625 -1.203125q0.71875 -0.4375 1.59375 -0.4375q0.921875 0 1.640625 0.4375q0.71875 0.421875 1.125 1.171875q0.421875 0.734375 0.421875 1.671875l0 0.296875l-5.375 0q0.046875 0.65625 0.359375 1.1875q0.328125 0.53125 0.859375 0.828125q0.53125 0.296875 1.171875 0.296875q0.5625 0 1.0625 -0.21875q0.5 -0.21875 0.84375 -0.609375l0.671875 0.59375q-0.515625 0.546875 -1.1875 0.828125q-0.65625 0.265625 -1.4375 0.265625zm-2.3125 -3.90625l4.375 0q-0.078125 -0.578125 -0.390625 -1.03125q-0.3125 -0.453125 -0.78125 -0.703125q-0.46875 -0.265625 -1.0625 -0.265625q-0.546875 0 -1.0 0.25q-0.453125 0.25 -0.75 0.703125q-0.296875 0.453125 -0.390625 1.046875zm7.465576 3.765625l0 -6.5l0.984375 0l0 1.046875q0.734375 -1.15625 2.0625 -1.15625q0.703125 0 1.234375 0.296875q0.53125 0.296875 0.828125 0.84375q0.296875 0.53125 0.296875 1.25l0 4.21875l-0.96875 0l0 -3.9375q0 -0.859375 -0.484375 -1.359375q-0.46875 -0.5 -1.265625 -0.5q-0.53125 0 -0.984375 0.25q-0.4375 0.25 -0.71875 0.75l0 4.796875l-0.984375 0zm11.746887 0.140625q-1.09375 0 -1.671875 -0.46875q-0.578125 -0.484375 -0.578125 -1.390625l0 -3.984375l-2.21875 0l0 -0.796875l2.21875 0l0 -1.796875l0.96875 -0.21875l0 2.015625l3.0 0l0 0.796875l-3.0 0l0 3.828125q0 0.609375 0.328125 0.875q0.34375 0.265625 0.96875 0.265625q0.390625 0 0.796875 -0.078125q0.421875 -0.078125 0.90625 -0.265625l0 0.875q-0.4375 0.15625 -0.875 0.25q-0.421875 0.09375 -0.84375 0.09375zm6.543701 -3.0l-0.125 -6.828125l1.0 0l-0.109375 6.828125l-0.765625 0zm0.390625 2.984375q-0.375 0 -0.625 -0.25q-0.25 -0.265625 -0.25 -0.625q0 -0.359375 0.25 -0.609375q0.25 -0.25 0.625 -0.25q0.375 0 0.609375 0.25q0.25 0.25 0.25 0.609375q0 0.359375 -0.25 0.625q-0.234375 0.25 -0.609375 0.25z" fill-rule="nonzero"/><path fill="#fffce5" d="m664.88763 296.81366l49.24408 -45.96852l49.24414 45.96852l-49.24414 45.968506z" fill-rule="evenodd"/><path stroke="#eb8335" stroke-width="4.0" stroke-linejoin="round" stroke-linecap="butt" d="m664.88763 296.81366l49.24408 -45.96852l49.24414 45.96852l-49.24414 45.968506z" fill-rule="evenodd"/><path fill="#fffce5" d="m874.2685 142.3937l49.24414 -45.968513l49.24408 45.968513l-49.24408 45.96849z" fill-rule="evenodd"/><path stroke="#eb8335" stroke-width="4.0" stroke-linejoin="round" stroke-linecap="butt" d="m874.2685 142.3937l49.24414 -45.968513l49.24408 45.968513l-49.24408 45.96849z" fill-rule="evenodd"/><path fill="#000000" fill-opacity="0.0" d="m776.72687 282.17847l225.7638 0l0 87.275604l-225.7638 0z" fill-rule="evenodd"/><path fill="#000000" d="m787.4925 309.09848l0 -13.0625l3.984375 0q1.1875 0 2.078125 0.421875q0.890625 0.40625 1.375 1.15625q0.484375 0.734375 0.484375 1.75q0 1.078125 -0.625 1.859375q-0.625 0.765625 -1.6875 1.078125q1.296875 0.296875 2.046875 1.140625q0.765625 0.828125 0.765625 2.03125q0 1.09375 -0.53125 1.921875q-0.515625 0.8125 -1.46875 1.265625q-0.953125 0.4375 -2.234375 0.4375l-4.1875 0zm1.4375 -7.34375l2.4375 0q1.1875 0 1.890625 -0.609375q0.71875 -0.609375 0.71875 -1.640625q0 -1.015625 -0.71875 -1.625q-0.703125 -0.609375 -1.890625 -0.609375l-2.4375 0l0 4.484375zm0 6.109375l2.59375 0q1.328125 0 2.125 -0.671875q0.8125 -0.671875 0.8125 -1.8125q0 -1.109375 -0.796875 -1.78125q-0.796875 -0.671875 -2.140625 -0.671875l-2.59375 0l0 4.9375zm9.725037 1.234375l0 -1.125l2.5 0l0 -6.859375l-2.5 0l0 -1.125l3.859375 0l0 2.03125q0.40625 -1.03125 1.234375 -1.59375q0.828125 -0.578125 1.90625 -0.578125q0.421875 0 0.75 0.0625q0.34375 0.0625 0.8125 0.21875l0 1.25q-0.46875 -0.15625 -0.890625 -0.25q-0.40625 -0.09375 -0.828125 -0.09375q-1.0 0 -1.796875 0.53125q-0.78125 0.515625 -1.1875 1.484375l0 4.921875l2.65625 0l0 1.125l-6.515625 0zm14.240601 0.1875q-1.0 0 -1.78125 -0.34375q-0.765625 -0.359375 -1.203125 -0.984375q-0.421875 -0.625 -0.421875 -1.453125q0 -0.828125 0.4375 -1.4375q0.4375 -0.609375 1.234375 -0.9375q0.796875 -0.34375 1.84375 -0.34375q0.8125 0 1.515625 0.15625q0.71875 0.15625 1.359375 0.53125l0 -1.046875q0 -1.21875 -0.625 -1.828125q-0.609375 -0.609375 -1.828125 -0.609375q-0.6875 0 -1.375 0.203125q-0.6875 0.1875 -1.546875 0.671875l-0.5625 -1.03125q0.984375 -0.546875 1.875 -0.765625q0.90625 -0.21875 1.78125 -0.21875q1.734375 0 2.671875 0.875q0.953125 0.875 0.953125 2.515625l0 5.859375l-1.34375 0l0 -1.046875q-0.640625 0.640625 -1.375 0.9375q-0.734375 0.296875 -1.609375 0.296875zm-2.09375 -2.8125q0 0.796875 0.65625 1.28125q0.65625 0.484375 1.71875 0.484375q0.796875 0 1.453125 -0.25q0.671875 -0.25 1.25 -0.8125l0 -1.75q-0.578125 -0.359375 -1.234375 -0.5q-0.65625 -0.15625 -1.4375 -0.15625q-1.078125 0 -1.75 0.46875q-0.65625 0.46875 -0.65625 1.234375zm10.350037 2.625l0 -9.109375l1.359375 0l0 1.484375q1.046875 -1.625 2.890625 -1.625q1.0 0 1.734375 0.421875q0.734375 0.421875 1.15625 1.171875q0.421875 0.75 0.421875 1.765625l0 5.890625l-1.359375 0l0 -5.5q0 -1.21875 -0.671875 -1.90625q-0.65625 -0.703125 -1.78125 -0.703125q-0.75 0 -1.359375 0.359375q-0.609375 0.34375 -1.03125 1.03125l0 6.71875l-1.359375 0zm15.099976 0.1875q-1.296875 0 -2.328125 -0.625q-1.03125 -0.625 -1.640625 -1.6875q-0.609375 -1.0625 -0.609375 -2.40625q0 -1.34375 0.609375 -2.40625q0.609375 -1.078125 1.640625 -1.6875q1.03125 -0.625 2.328125 -0.625q1.265625 0 2.28125 0.5625q1.03125 0.546875 1.625 1.5l-1.09375 0.6875q-0.421875 -0.703125 -1.171875 -1.125q-0.734375 -0.421875 -1.640625 -0.421875q-0.9375 0 -1.671875 0.46875q-0.71875 0.453125 -1.140625 1.234375q-0.421875 0.78125 -0.421875 1.8125q0 1.0 0.421875 1.796875q0.421875 0.796875 1.140625 1.25q0.734375 0.453125 1.671875 0.453125q0.90625 0 1.640625 -0.40625q0.75 -0.421875 1.171875 -1.140625l1.09375 0.6875q-0.59375 0.953125 -1.625 1.515625q-1.015625 0.5625 -2.28125 0.5625zm7.2875366 -0.1875l0 -13.46875l1.359375 -0.28125l0 6.125q1.046875 -1.625 2.890625 -1.625q1.0 0 1.734375 0.421875q0.734375 0.421875 1.15625 1.171875q0.421875 0.75 0.421875 1.765625l0 5.890625l-1.359375 0l0 -5.5q0 -1.21875 -0.671875 -1.90625q-0.65625 -0.703125 -1.78125 -0.703125q-0.75 0 -1.359375 0.359375q-0.609375 0.34375 -1.03125 1.03125l0 6.71875l-1.359375 0zm26.434387 -11.265625l-2.6875 -2.28125l1.921875 0l2.09375 2.28125l-1.328125 0zm10.521851 11.390625q-1.171875 0 -2.125 -0.625q-0.953125 -0.625 -1.515625 -1.671875q-0.546875 -1.0625 -0.546875 -2.359375q0 -1.328125 0.5625 -2.375q0.578125 -1.0625 1.546875 -1.6875q0.96875 -0.625 2.15625 -0.625q0.84375 0 1.5625 0.328125q0.734375 0.328125 1.28125 0.9375l0 -5.515625l1.359375 -0.28125l0 13.75l-1.359375 0l0 -1.21875q-0.53125 0.65625 -1.28125 1.0q-0.734375 0.34375 -1.640625 0.34375zm0.34375 -1.1875q0.796875 0 1.46875 -0.3125q0.671875 -0.328125 1.109375 -0.90625l0 -4.515625q-0.453125 -0.578125 -1.140625 -0.890625q-0.671875 -0.328125 -1.4375 -0.328125q-0.921875 0 -1.640625 0.453125q-0.71875 0.4375 -1.140625 1.21875q-0.40625 0.78125 -0.40625 1.796875q0 0.984375 0.40625 1.78125q0.421875 0.78125 1.140625 1.25q0.71875 0.453125 1.640625 0.453125zm11.459412 1.25q-1.3125 0 -2.359375 -0.625q-1.046875 -0.625 -1.65625 -1.6875q-0.59375 -1.078125 -0.59375 -2.421875q0 -1.34375 0.578125 -2.40625q0.578125 -1.0625 1.5625 -1.671875q1.0 -0.625 2.234375 -0.625q1.296875 0 2.296875 0.609375q1.015625 0.59375 1.59375 1.640625q0.578125 1.03125 0.578125 2.328125l0 0.421875l-7.53125 0q0.078125 0.921875 0.515625 1.671875q0.453125 0.734375 1.1875 1.15625q0.75 0.421875 1.640625 0.421875q0.796875 0 1.5 -0.3125q0.703125 -0.3125 1.171875 -0.859375l0.953125 0.84375q-0.734375 0.75 -1.671875 1.140625q-0.921875 0.375 -2.0 0.375zm-3.25 -5.453125l6.140625 0q-0.125 -0.8125 -0.5625 -1.4375q-0.4375 -0.640625 -1.09375 -1.0q-0.65625 -0.375 -1.484375 -0.375q-0.765625 0 -1.40625 0.359375q-0.625 0.34375 -1.046875 0.984375q-0.421875 0.640625 -0.546875 1.46875zm13.553101 5.265625l-3.90625 -9.109375l1.46875 0l3.140625 7.5625l3.078125 -7.5625l1.453125 0l-3.921875 9.109375l-1.3125 0zm12.146912 -11.265625l-2.6875 -2.28125l1.921875 0l2.09375 2.28125l-1.328125 0z" fill-rule="nonzero"/><path fill="#000000" d="m787.39874 335.40472l0 -13.015625l1.34375 0l0 1.3125q0.53125 -0.6875 1.28125 -1.046875q0.765625 -0.375 1.671875 -0.375q1.1875 0 2.125 0.625q0.953125 0.625 1.515625 1.6875q0.5625 1.046875 0.5625 2.359375q0 1.296875 -0.578125 2.359375q-0.5625 1.0625 -1.53125 1.6875q-0.953125 0.625 -2.171875 0.625q-0.859375 0 -1.59375 -0.3125q-0.71875 -0.328125 -1.25 -0.953125l0 5.046875l-1.375 0zm3.96875 -4.953125q0.90625 0 1.625 -0.453125q0.71875 -0.453125 1.140625 -1.25q0.421875 -0.796875 0.421875 -1.78125q0 -1.015625 -0.421875 -1.796875q-0.421875 -0.78125 -1.140625 -1.234375q-0.71875 -0.453125 -1.625 -0.453125q-0.8125 0 -1.5 0.328125q-0.671875 0.3125 -1.09375 0.921875l0 4.453125q0.4375 0.59375 1.109375 0.9375q0.6875 0.328125 1.484375 0.328125zm11.146912 1.234375q-1.25 0 -2.25 -0.625q-1.0 -0.625 -1.59375 -1.6875q-0.578125 -1.0625 -0.578125 -2.40625q0 -1.34375 0.578125 -2.40625q0.59375 -1.078125 1.59375 -1.6875q1.0 -0.625 2.25 -0.625q1.25 0 2.25 0.625q1.0 0.609375 1.578125 1.6875q0.59375 1.0625 0.59375 2.40625q0 1.34375 -0.59375 2.40625q-0.578125 1.0625 -1.578125 1.6875q-1.0 0.625 -2.25 0.625zm0 -1.21875q0.90625 0 1.59375 -0.453125q0.6875 -0.453125 1.078125 -1.25q0.40625 -0.796875 0.40625 -1.8125q0 -1.015625 -0.40625 -1.796875q-0.390625 -0.78125 -1.078125 -1.234375q-0.6875 -0.46875 -1.59375 -0.46875q-0.890625 0 -1.578125 0.46875q-0.6875 0.453125 -1.09375 1.234375q-0.40625 0.78125 -0.40625 1.796875q0 1.015625 0.40625 1.8125q0.40625 0.796875 1.09375 1.25q0.6875 0.453125 1.578125 0.453125zm11.068726 -10.234375q-0.484375 0 -0.828125 -0.34375q-0.34375 -0.34375 -0.34375 -0.8125q0 -0.484375 0.34375 -0.8125q0.34375 -0.34375 0.828125 -0.34375q0.484375 0 0.828125 0.34375q0.34375 0.328125 0.34375 0.8125q0 0.46875 -0.34375 0.8125q-0.34375 0.34375 -0.828125 0.34375zm2.28125 11.453125q-1.4375 0 -2.203125 -0.671875q-0.765625 -0.671875 -0.765625 -2.015625l0 -5.484375l-3.375 0l0 -1.125l4.734375 0l0 6.484375q0 0.859375 0.40625 1.234375q0.40625 0.359375 1.21875 0.359375q0.484375 0 0.984375 -0.09375q0.5 -0.109375 1.125 -0.34375l0 1.21875q-0.546875 0.1875 -1.078125 0.3125q-0.53125 0.125 -1.046875 0.125zm5.2875366 -0.1875l0 -9.109375l1.359375 0l0 1.484375q1.046875 -1.625 2.890625 -1.625q1.0 0 1.734375 0.421875q0.734375 0.421875 1.15625 1.171875q0.421875 0.75 0.421875 1.765625l0 5.890625l-1.359375 0l0 -5.5q0 -1.21875 -0.671875 -1.90625q-0.65625 -0.703125 -1.78125 -0.703125q-0.75 0 -1.359375 0.359375q-0.609375 0.34375 -1.03125 1.03125l0 6.71875l-1.359375 0zm16.443726 0.1875q-1.53125 0 -2.34375 -0.65625q-0.8125 -0.671875 -0.8125 -1.9375l0 -5.578125l-3.109375 0l0 -1.125l3.109375 0l0 -2.5l1.359375 -0.3125l0 2.8125l4.203125 0l0 1.125l-4.203125 0l0 5.359375q0 0.859375 0.46875 1.234375q0.46875 0.359375 1.34375 0.359375q0.546875 0 1.125 -0.109375q0.578125 -0.109375 1.265625 -0.375l0 1.234375q-0.625 0.21875 -1.21875 0.34375q-0.59375 0.125 -1.1875 0.125zm9.600037 0q-1.203125 0 -2.25 -0.328125q-1.046875 -0.328125 -1.75 -1.015625l0.71875 -0.953125q0.875 0.640625 1.65625 0.890625q0.796875 0.25 1.59375 0.25q1.140625 0 1.875 -0.4375q0.734375 -0.453125 0.734375 -1.15625q0 -0.53125 -0.34375 -0.8125q-0.34375 -0.296875 -0.90625 -0.421875q-0.5625 -0.140625 -1.25 -0.203125q-0.671875 -0.078125 -1.359375 -0.203125q-0.671875 -0.125 -1.234375 -0.359375q-0.5625 -0.25 -0.90625 -0.71875q-0.34375 -0.484375 -0.34375 -1.28125q0 -0.8125 0.453125 -1.40625q0.46875 -0.59375 1.28125 -0.9375q0.828125 -0.34375 1.859375 -0.34375q1.03125 0 1.953125 0.25q0.921875 0.25 1.84375 0.890625l-0.671875 0.984375q-0.765625 -0.546875 -1.5625 -0.75q-0.796875 -0.21875 -1.609375 -0.21875q-1.03125 0 -1.671875 0.390625q-0.625 0.390625 -0.625 1.046875q0 0.515625 0.34375 0.796875q0.34375 0.28125 0.90625 0.421875q0.578125 0.125 1.25 0.203125q0.6875 0.078125 1.359375 0.203125q0.6875 0.125 1.25 0.375q0.578125 0.25 0.921875 0.734375q0.34375 0.46875 0.34375 1.296875q0 0.78125 -0.5 1.421875q-0.5 0.640625 -1.375 1.015625q-0.875 0.375 -1.984375 0.375zm23.981262 0q-1.53125 0 -2.34375 -0.65625q-0.8125 -0.671875 -0.8125 -1.9375l0 -5.578125l-3.109375 0l0 -1.125l3.109375 0l0 -2.5l1.359375 -0.3125l0 2.8125l4.203125 0l0 1.125l-4.203125 0l0 5.359375q0 0.859375 0.46875 1.234375q0.46875 0.359375 1.34375 0.359375q0.546875 0 1.125 -0.109375q0.578125 -0.109375 1.265625 -0.375l0 1.234375q-0.625 0.21875 -1.21875 0.34375q-0.59375 0.125 -1.1875 0.125zm9.693726 0q-1.25 0 -2.25 -0.625q-1.0 -0.625 -1.59375 -1.6875q-0.578125 -1.0625 -0.578125 -2.40625q0 -1.34375 0.578125 -2.40625q0.59375 -1.078125 1.59375 -1.6875q1.0 -0.625 2.25 -0.625q1.25 0 2.25 0.625q1.0 0.609375 1.578125 1.6875q0.59375 1.0625 0.59375 2.40625q0 1.34375 -0.59375 2.40625q-0.578125 1.0625 -1.578125 1.6875q-1.0 0.625 -2.25 0.625zm0 -1.21875q0.90625 0 1.59375 -0.453125q0.6875 -0.453125 1.078125 -1.25q0.40625 -0.796875 0.40625 -1.8125q0 -1.015625 -0.40625 -1.796875q-0.390625 -0.78125 -1.078125 -1.234375q-0.6875 -0.46875 -1.59375 -0.46875q-0.890625 0 -1.578125 0.46875q-0.6875 0.453125 -1.09375 1.234375q-0.40625 0.78125 -0.40625 1.796875q0 1.015625 0.40625 1.8125q0.40625 0.796875 1.09375 1.25q0.6875 0.453125 1.578125 0.453125zm23.887512 1.21875q-1.53125 0 -2.34375 -0.65625q-0.8125 -0.671875 -0.8125 -1.9375l0 -5.578125l-3.109375 0l0 -1.125l3.109375 0l0 -2.5l1.359375 -0.3125l0 2.8125l4.203125 0l0 1.125l-4.203125 0l0 5.359375q0 0.859375 0.46875 1.234375q0.46875 0.359375 1.34375 0.359375q0.546875 0 1.125 -0.109375q0.578125 -0.109375 1.265625 -0.375l0 1.234375q-0.625 0.21875 -1.21875 0.34375q-0.59375 0.125 -1.1875 0.125zm5.9437866 -0.1875l0 -13.46875l1.359375 -0.28125l0 6.125q1.046875 -1.625 2.890625 -1.625q1.0 0 1.734375 0.421875q0.734375 0.421875 1.15625 1.171875q0.421875 0.75 0.421875 1.765625l0 5.890625l-1.359375 0l0 -5.5q0 -1.21875 -0.671875 -1.90625q-0.65625 -0.703125 -1.78125 -0.703125q-0.75 0 -1.359375 0.359375q-0.609375 0.34375 -1.03125 1.03125l0 6.71875l-1.359375 0zm14.818726 -11.265625q-0.484375 0 -0.828125 -0.34375q-0.34375 -0.34375 -0.34375 -0.8125q0 -0.484375 0.34375 -0.8125q0.34375 -0.34375 0.828125 -0.34375q0.484375 0 0.828125 0.34375q0.34375 0.328125 0.34375 0.8125q0 0.46875 -0.34375 0.8125q-0.34375 0.34375 -0.828125 0.34375zm2.28125 11.453125q-1.4375 0 -2.203125 -0.671875q-0.765625 -0.671875 -0.765625 -2.015625l0 -5.484375l-3.375 0l0 -1.125l4.734375 0l0 6.484375q0 0.859375 0.40625 1.234375q0.40625 0.359375 1.21875 0.359375q0.484375 0 0.984375 -0.09375q0.5 -0.109375 1.125 -0.34375l0 1.21875q-0.546875 0.1875 -1.078125 0.3125q-0.53125 0.125 -1.046875 0.125zm8.943787 0q-1.203125 0 -2.25 -0.328125q-1.046875 -0.328125 -1.75 -1.015625l0.71875 -0.953125q0.875 0.640625 1.65625 0.890625q0.796875 0.25 1.59375 0.25q1.140625 0 1.875 -0.4375q0.734375 -0.453125 0.734375 -1.15625q0 -0.53125 -0.34375 -0.8125q-0.34375 -0.296875 -0.90625 -0.421875q-0.5625 -0.140625 -1.25 -0.203125q-0.671875 -0.078125 -1.359375 -0.203125q-0.671875 -0.125 -1.234375 -0.359375q-0.5625 -0.25 -0.90625 -0.71875q-0.34375 -0.484375 -0.34375 -1.28125q0 -0.8125 0.453125 -1.40625q0.46875 -0.59375 1.28125 -0.9375q0.828125 -0.34375 1.859375 -0.34375q1.03125 0 1.953125 0.25q0.921875 0.25 1.84375 0.890625l-0.671875 0.984375q-0.765625 -0.546875 -1.5625 -0.75q-0.796875 -0.21875 -1.609375 -0.21875q-1.03125 0 -1.671875 0.390625q-0.625 0.390625 -0.625 1.046875q0 0.515625 0.34375 0.796875q0.34375 0.28125 0.90625 0.421875q0.578125 0.125 1.25 0.203125q0.6875 0.078125 1.359375 0.203125q0.6875 0.125 1.25 0.375q0.578125 0.25 0.921875 0.734375q0.34375 0.46875 0.34375 1.296875q0 0.78125 -0.5 1.421875q-0.5 0.640625 -1.375 1.015625q-0.875 0.375 -1.984375 0.375z" fill-rule="nonzero"/><path fill="#000000" d="m793.47687 354.08597q-1.4375 0 -2.203125 -0.671875q-0.765625 -0.671875 -0.765625 -2.015625l0 -9.9375l-3.375 0l0 -1.125l4.734375 0l0 10.9375q0 0.859375 0.40625 1.234375q0.40625 0.359375 1.21875 0.359375q0.484375 0 0.984375 -0.09375q0.5 -0.109375 1.125 -0.34375l0 1.21875q-0.546875 0.1875 -1.078125 0.3125q-0.53125 0.125 -1.046875 0.125zm9.271912 0q-1.3125 0 -2.359375 -0.625q-1.046875 -0.625 -1.65625 -1.6875q-0.59375 -1.078125 -0.59375 -2.421875q0 -1.34375 0.578125 -2.40625q0.578125 -1.0625 1.5625 -1.671875q1.0 -0.625 2.234375 -0.625q1.296875 0 2.296875 0.609375q1.015625 0.59375 1.59375 1.640625q0.578125 1.03125 0.578125 2.328125l0 0.421875l-7.53125 0q0.078125 0.921875 0.515625 1.671875q0.453125 0.734375 1.1875 1.15625q0.75 0.421875 1.640625 0.421875q0.796875 0 1.5 -0.3125q0.703125 -0.3125 1.171875 -0.859375l0.953125 0.84375q-0.734375 0.75 -1.671875 1.140625q-0.921875 0.375 -2.0 0.375zm-3.25 -5.453125l6.140625 0q-0.125 -0.8125 -0.5625 -1.4375q-0.4375 -0.640625 -1.09375 -1.0q-0.65625 -0.375 -1.484375 -0.375q-0.765625 0 -1.40625 0.359375q-0.625 0.34375 -1.046875 0.984375q-0.421875 0.640625 -0.546875 1.46875zm13.396851 5.453125q-1.0 0 -1.78125 -0.34375q-0.765625 -0.359375 -1.203125 -0.984375q-0.421875 -0.625 -0.421875 -1.453125q0 -0.828125 0.4375 -1.4375q0.4375 -0.609375 1.234375 -0.9375q0.796875 -0.34375 1.84375 -0.34375q0.8125 0 1.515625 0.15625q0.71875 0.15625 1.359375 0.53125l0 -1.046875q0 -1.21875 -0.625 -1.828125q-0.609375 -0.609375 -1.828125 -0.609375q-0.6875 0 -1.375 0.203125q-0.6875 0.1875 -1.546875 0.671875l-0.5625 -1.03125q0.984375 -0.546875 1.875 -0.765625q0.90625 -0.21875 1.78125 -0.21875q1.734375 0 2.671875 0.875q0.953125 0.875 0.953125 2.515625l0 5.859375l-1.34375 0l0 -1.046875q-0.640625 0.640625 -1.375 0.9375q-0.734375 0.296875 -1.609375 0.296875zm-2.09375 -2.8125q0 0.796875 0.65625 1.28125q0.65625 0.484375 1.71875 0.484375q0.796875 0 1.453125 -0.25q0.671875 -0.25 1.25 -0.8125l0 -1.75q-0.578125 -0.359375 -1.234375 -0.5q-0.65625 -0.15625 -1.4375 -0.15625q-1.078125 0 -1.75 0.46875q-0.65625 0.46875 -0.65625 1.234375zm12.537537 2.625l0 -7.984375l-3.109375 0l0 -1.125l3.109375 0l0 -1.828125q0 -2.875 3.296875 -2.875q0.5625 0 1.125 0.125q0.578125 0.109375 1.140625 0.3125l0 1.265625q-0.6875 -0.28125 -1.21875 -0.375q-0.515625 -0.109375 -1.171875 -0.109375q-0.875 0 -1.34375 0.4375q-0.46875 0.4375 -0.46875 1.453125l0 1.59375l4.203125 0l0 1.125l-4.203125 0l0 7.984375l-1.359375 0z" fill-rule="nonzero"/><path fill="#000000" fill-opacity="0.0" d="m776.72687 142.3937l73.85828 0" fill-rule="evenodd"/><path stroke="#476a97" stroke-width="3.0" stroke-linejoin="round" stroke-linecap="butt" d="m776.72687 142.3937l55.858276 0" fill-rule="evenodd"/><path fill="#476a97" stroke="#476a97" stroke-width="3.0" stroke-linecap="butt" d="m832.58514 147.34889l13.614258 -4.955185l-13.614258 -4.9552z" fill-rule="evenodd"/><path fill="#000000" fill-opacity="0.0" d="m810.6335 4.8398952l225.76385 0l0 87.27559l-225.76385 0z" fill-rule="evenodd"/><path fill="#000000" d="m852.5216 31.759893l0 -13.0625l3.984375 0q1.1875 0 2.078125 0.421875q0.890625 0.40625 1.375 1.15625q0.484375 0.734375 0.484375 1.75q0 1.078125 -0.625 1.859375q-0.625 0.765625 -1.6875 1.078125q1.296875 0.296875 2.046875 1.140625q0.765625 0.828125 0.765625 2.03125q0 1.09375 -0.53125 1.921875q-0.515625 0.8125 -1.46875 1.265625q-0.953125 0.4375 -2.234375 0.4375l-4.1875 0zm1.4375 -7.34375l2.4375 0q1.1875 0 1.890625 -0.609375q0.71875 -0.609375 0.71875 -1.640625q0 -1.015625 -0.71875 -1.625q-0.703125 -0.609375 -1.890625 -0.609375l-2.4375 0l0 4.484375zm0 6.109375l2.59375 0q1.328125 0 2.125 -0.671875q0.8125 -0.671875 0.8125 -1.8125q0 -1.109375 -0.796875 -1.78125q-0.796875 -0.671875 -2.140625 -0.671875l-2.59375 0l0 4.9375zm9.725037 1.234375l0 -1.125l2.5 0l0 -6.859375l-2.5 0l0 -1.125l3.859375 0l0 2.03125q0.40625 -1.03125 1.234375 -1.59375q0.828125 -0.578125 1.90625 -0.578125q0.421875 0 0.75 0.0625q0.34375 0.0625 0.8125 0.21875l0 1.25q-0.46875 -0.15625 -0.890625 -0.25q-0.40625 -0.09375 -0.828125 -0.09375q-1.0 0 -1.796875 0.53125q-0.78125 0.515625 -1.1875 1.484375l0 4.921875l2.65625 0l0 1.125l-6.515625 0zm14.240601 0.1875q-1.0 0 -1.78125 -0.34375q-0.765625 -0.359375 -1.203125 -0.984375q-0.421875 -0.625 -0.421875 -1.453125q0 -0.828125 0.4375 -1.4375q0.4375 -0.609375 1.234375 -0.9375q0.796875 -0.34375 1.84375 -0.34375q0.8125 0 1.515625 0.15625q0.71875 0.15625 1.359375 0.53125l0 -1.046875q0 -1.21875 -0.625 -1.828125q-0.609375 -0.609375 -1.828125 -0.609375q-0.6875 0 -1.375 0.203125q-0.6875 0.1875 -1.546875 0.671875l-0.5625 -1.03125q0.984375 -0.546875 1.875 -0.765625q0.90625 -0.21875 1.78125 -0.21875q1.734375 0 2.671875 0.875q0.953125 0.875 0.953125 2.515625l0 5.859375l-1.34375 0l0 -1.046875q-0.640625 0.640625 -1.375 0.9375q-0.734375 0.296875 -1.609375 0.296875zm-2.09375 -2.8125q0 0.796875 0.65625 1.28125q0.65625 0.484375 1.71875 0.484375q0.796875 0 1.453125 -0.25q0.671875 -0.25 1.25 -0.8125l0 -1.75q-0.578125 -0.359375 -1.234375 -0.5q-0.65625 -0.15625 -1.4375 -0.15625q-1.078125 0 -1.75 0.46875q-0.65625 0.46875 -0.65625 1.234375zm10.350037 2.625l0 -9.109375l1.359375 0l0 1.484375q1.046875 -1.625 2.890625 -1.625q1.0 0 1.734375 0.421875q0.734375 0.421875 1.15625 1.171875q0.421875 0.75 0.421875 1.765625l0 5.890625l-1.359375 0l0 -5.5q0 -1.21875 -0.671875 -1.90625q-0.65625 -0.703125 -1.78125 -0.703125q-0.75 0 -1.359375 0.359375q-0.609375 0.34375 -1.03125 1.03125l0 6.71875l-1.359375 0zm15.099976 0.1875q-1.296875 0 -2.328125 -0.625q-1.03125 -0.625 -1.640625 -1.6875q-0.609375 -1.0625 -0.609375 -2.40625q0 -1.34375 0.609375 -2.40625q0.609375 -1.078125 1.640625 -1.6875q1.03125 -0.625 2.328125 -0.625q1.265625 0 2.28125 0.5625q1.03125 0.546875 1.625 1.5l-1.09375 0.6875q-0.421875 -0.703125 -1.171875 -1.125q-0.734375 -0.421875 -1.640625 -0.421875q-0.9375 0 -1.671875 0.46875q-0.71875 0.453125 -1.140625 1.234375q-0.421875 0.78125 -0.421875 1.8125q0 1.0 0.421875 1.796875q0.421875 0.796875 1.140625 1.25q0.734375 0.453125 1.671875 0.453125q0.90625 0 1.640625 -0.40625q0.75 -0.421875 1.171875 -1.140625l1.09375 0.6875q-0.59375 0.953125 -1.625 1.515625q-1.015625 0.5625 -2.28125 0.5625zm7.2875366 -0.1875l0 -13.46875l1.359375 -0.28125l0 6.125q1.046875 -1.625 2.890625 -1.625q1.0 0 1.734375 0.421875q0.734375 0.421875 1.15625 1.171875q0.421875 0.75 0.421875 1.765625l0 5.890625l-1.359375 0l0 -5.5q0 -1.21875 -0.671875 -1.90625q-0.65625 -0.703125 -1.78125 -0.703125q-0.75 0 -1.359375 0.359375q-0.609375 0.34375 -1.03125 1.03125l0 6.71875l-1.359375 0zm26.434387 -11.265625l-2.6875 -2.28125l1.921875 0l2.09375 2.28125l-1.328125 0zm6.5531006 11.265625l0 -9.109375l1.265625 0l0 0.78125q0.34375 -0.484375 0.734375 -0.6875q0.40625 -0.21875 0.921875 -0.21875q0.609375 0 1.0625 0.296875q0.46875 0.28125 0.734375 0.796875q0.375 -0.578125 0.859375 -0.828125q0.5 -0.265625 1.140625 -0.265625q0.90625 0 1.46875 0.671875q0.578125 0.671875 0.578125 1.75l0 6.8125l-1.25 0l0 -6.46875q0 -0.8125 -0.34375 -1.265625q-0.328125 -0.46875 -0.953125 -0.46875q-0.359375 0 -0.65625 0.15625q-0.296875 0.15625 -0.578125 0.609375q0.03125 0.140625 0.03125 0.296875q0.015625 0.15625 0.015625 0.328125l0 6.8125l-1.25 0l0 -6.46875q0 -0.8125 -0.34375 -1.265625q-0.34375 -0.46875 -1.0 -0.46875q-0.3125 0 -0.609375 0.140625q-0.296875 0.140625 -0.5625 0.546875l0 7.515625l-1.265625 0zm14.724976 0.1875q-1.0 0 -1.78125 -0.34375q-0.765625 -0.359375 -1.203125 -0.984375q-0.421875 -0.625 -0.421875 -1.453125q0 -0.828125 0.4375 -1.4375q0.4375 -0.609375 1.234375 -0.9375q0.796875 -0.34375 1.84375 -0.34375q0.8125 0 1.515625 0.15625q0.71875 0.15625 1.359375 0.53125l0 -1.046875q0 -1.21875 -0.625 -1.828125q-0.609375 -0.609375 -1.828125 -0.609375q-0.6875 0 -1.375 0.203125q-0.6875 0.1875 -1.546875 0.671875l-0.5625 -1.03125q0.984375 -0.546875 1.875 -0.765625q0.90625 -0.21875 1.78125 -0.21875q1.734375 0 2.671875 0.875q0.953125 0.875 0.953125 2.515625l0 5.859375l-1.34375 0l0 -1.046875q-0.640625 0.640625 -1.375 0.9375q-0.734375 0.296875 -1.609375 0.296875zm-2.09375 -2.8125q0 0.796875 0.65625 1.28125q0.65625 0.484375 1.71875 0.484375q0.796875 0 1.453125 -0.25q0.671875 -0.25 1.25 -0.8125l0 -1.75q-0.578125 -0.359375 -1.234375 -0.5q-0.65625 -0.15625 -1.4375 -0.15625q-1.078125 0 -1.75 0.46875q-0.65625 0.46875 -0.65625 1.234375zm13.975037 -8.640625q-0.484375 0 -0.828125 -0.34375q-0.34375 -0.34375 -0.34375 -0.8125q0 -0.484375 0.34375 -0.8125q0.34375 -0.34375 0.828125 -0.34375q0.484375 0 0.828125 0.34375q0.34375 0.328125 0.34375 0.8125q0 0.46875 -0.34375 0.8125q-0.34375 0.34375 -0.828125 0.34375zm2.28125 11.453125q-1.4375 0 -2.203125 -0.671875q-0.765625 -0.671875 -0.765625 -2.015625l0 -5.484375l-3.375 0l0 -1.125l4.734375 0l0 6.484375q0 0.859375 0.40625 1.234375q0.40625 0.359375 1.21875 0.359375q0.484375 0 0.984375 -0.09375q0.5 -0.109375 1.125 -0.34375l0 1.21875q-0.546875 0.1875 -1.078125 0.3125q-0.53125 0.125 -1.046875 0.125zm5.2874756 -0.1875l0 -9.109375l1.359375 0l0 1.484375q1.046875 -1.625 2.890625 -1.625q1.0 0 1.734375 0.421875q0.734375 0.421875 1.15625 1.171875q0.421875 0.75 0.421875 1.765625l0 5.890625l-1.359375 0l0 -5.5q0 -1.21875 -0.671875 -1.90625q-0.65625 -0.703125 -1.78125 -0.703125q-0.75 0 -1.359375 0.359375q-0.609375 0.34375 -1.03125 1.03125l0 6.71875l-1.359375 0zm15.240662 -11.265625l-2.6875 -2.28125l1.921875 0l2.09375 2.28125l-1.328125 0z" fill-rule="nonzero"/><path fill="#000000" d="m846.831 58.06614l0 -13.015625l1.34375 0l0 1.3125q0.53125 -0.6875 1.28125 -1.046875q0.765625 -0.375 1.671875 -0.375q1.1875 0 2.125 0.625q0.953125 0.625 1.515625 1.6875q0.5625 1.046875 0.5625 2.359375q0 1.296875 -0.578125 2.359375q-0.5625 1.0625 -1.53125 1.6875q-0.953125 0.625 -2.171875 0.625q-0.859375 0 -1.59375 -0.3125q-0.71875 -0.328125 -1.25 -0.953125l0 5.046875l-1.375 0zm3.96875 -4.953125q0.90625 0 1.625 -0.453125q0.71875 -0.453125 1.140625 -1.25q0.421875 -0.796875 0.421875 -1.78125q0 -1.015625 -0.421875 -1.796875q-0.421875 -0.78125 -1.140625 -1.234375q-0.71875 -0.453125 -1.625 -0.453125q-0.8125 0 -1.5 0.328125q-0.671875 0.3125 -1.09375 0.921875l0 4.453125q0.4375 0.59375 1.109375 0.9375q0.6875 0.328125 1.484375 0.328125zm11.146851 1.234375q-1.25 0 -2.25 -0.625q-1.0 -0.625 -1.59375 -1.6875q-0.578125 -1.0625 -0.578125 -2.40625q0 -1.34375 0.578125 -2.40625q0.59375 -1.078125 1.59375 -1.6875q1.0 -0.625 2.25 -0.625q1.25 0 2.25 0.625q1.0 0.609375 1.578125 1.6875q0.59375 1.0625 0.59375 2.40625q0 1.34375 -0.59375 2.40625q-0.578125 1.0625 -1.578125 1.6875q-1.0 0.625 -2.25 0.625zm0 -1.21875q0.90625 0 1.59375 -0.453125q0.6875 -0.453125 1.078125 -1.25q0.40625 -0.796875 0.40625 -1.8125q0 -1.015625 -0.40625 -1.796875q-0.390625 -0.78125 -1.078125 -1.234375q-0.6875 -0.46875 -1.59375 -0.46875q-0.890625 0 -1.578125 0.46875q-0.6875 0.453125 -1.09375 1.234375q-0.40625 0.78125 -0.40625 1.796875q0 1.015625 0.40625 1.8125q0.40625 0.796875 1.09375 1.25q0.6875 0.453125 1.578125 0.453125zm11.068787 -10.234375q-0.484375 0 -0.828125 -0.34375q-0.34375 -0.34375 -0.34375 -0.8125q0 -0.484375 0.34375 -0.8125q0.34375 -0.34375 0.828125 -0.34375q0.484375 0 0.828125 0.34375q0.34375 0.328125 0.34375 0.8125q0 0.46875 -0.34375 0.8125q-0.34375 0.34375 -0.828125 0.34375zm2.28125 11.453125q-1.4375 0 -2.203125 -0.671875q-0.765625 -0.671875 -0.765625 -2.015625l0 -5.484375l-3.375 0l0 -1.125l4.734375 0l0 6.484375q0 0.859375 0.40625 1.234375q0.40625 0.359375 1.21875 0.359375q0.484375 0 0.984375 -0.09375q0.5 -0.109375 1.125 -0.34375l0 1.21875q-0.546875 0.1875 -1.078125 0.3125q-0.53125 0.125 -1.046875 0.125zm5.2874756 -0.1875l0 -9.109375l1.359375 0l0 1.484375q1.046875 -1.625 2.890625 -1.625q1.0 0 1.734375 0.421875q0.734375 0.421875 1.15625 1.171875q0.421875 0.75 0.421875 1.765625l0 5.890625l-1.359375 0l0 -5.5q0 -1.21875 -0.671875 -1.90625q-0.65625 -0.703125 -1.78125 -0.703125q-0.75 0 -1.359375 0.359375q-0.609375 0.34375 -1.03125 1.03125l0 6.71875l-1.359375 0zm16.443787 0.1875q-1.53125 0 -2.34375 -0.65625q-0.8125 -0.671875 -0.8125 -1.9375l0 -5.578125l-3.109375 0l0 -1.125l3.109375 0l0 -2.5l1.359375 -0.3125l0 2.8125l4.203125 0l0 1.125l-4.203125 0l0 5.359375q0 0.859375 0.46875 1.234375q0.46875 0.359375 1.34375 0.359375q0.546875 0 1.125 -0.109375q0.578125 -0.109375 1.265625 -0.375l0 1.234375q-0.625 0.21875 -1.21875 0.34375q-0.59375 0.125 -1.1875 0.125zm9.599976 0q-1.203125 0 -2.25 -0.328125q-1.046875 -0.328125 -1.75 -1.015625l0.71875 -0.953125q0.875 0.640625 1.65625 0.890625q0.796875 0.25 1.59375 0.25q1.140625 0 1.875 -0.4375q0.734375 -0.453125 0.734375 -1.15625q0 -0.53125 -0.34375 -0.8125q-0.34375 -0.296875 -0.90625 -0.421875q-0.5625 -0.140625 -1.25 -0.203125q-0.671875 -0.078125 -1.359375 -0.203125q-0.671875 -0.125 -1.234375 -0.359375q-0.5625 -0.25 -0.90625 -0.71875q-0.34375 -0.484375 -0.34375 -1.28125q0 -0.8125 0.453125 -1.40625q0.46875 -0.59375 1.28125 -0.9375q0.828125 -0.34375 1.859375 -0.34375q1.03125 0 1.953125 0.25q0.921875 0.25 1.84375 0.890625l-0.671875 0.984375q-0.765625 -0.546875 -1.5625 -0.75q-0.796875 -0.21875 -1.609375 -0.21875q-1.03125 0 -1.671875 0.390625q-0.625 0.390625 -0.625 1.046875q0 0.515625 0.34375 0.796875q0.34375 0.28125 0.90625 0.421875q0.578125 0.125 1.25 0.203125q0.6875 0.078125 1.359375 0.203125q0.6875 0.125 1.25 0.375q0.578125 0.25 0.921875 0.734375q0.34375 0.46875 0.34375 1.296875q0 0.78125 -0.5 1.421875q-0.5 0.640625 -1.375 1.015625q-0.875 0.375 -1.984375 0.375zm23.981262 0q-1.53125 0 -2.34375 -0.65625q-0.8125 -0.671875 -0.8125 -1.9375l0 -5.578125l-3.109375 0l0 -1.125l3.109375 0l0 -2.5l1.359375 -0.3125l0 2.8125l4.203125 0l0 1.125l-4.203125 0l0 5.359375q0 0.859375 0.46875 1.234375q0.46875 0.359375 1.34375 0.359375q0.546875 0 1.125 -0.109375q0.578125 -0.109375 1.265625 -0.375l0 1.234375q-0.625 0.21875 -1.21875 0.34375q-0.59375 0.125 -1.1875 0.125zm9.693787 0q-1.25 0 -2.25 -0.625q-1.0 -0.625 -1.59375 -1.6875q-0.578125 -1.0625 -0.578125 -2.40625q0 -1.34375 0.578125 -2.40625q0.59375 -1.078125 1.59375 -1.6875q1.0 -0.625 2.25 -0.625q1.25 0 2.25 0.625q1.0 0.609375 1.578125 1.6875q0.59375 1.0625 0.59375 2.40625q0 1.34375 -0.59375 2.40625q-0.578125 1.0625 -1.578125 1.6875q-1.0 0.625 -2.25 0.625zm0 -1.21875q0.90625 0 1.59375 -0.453125q0.6875 -0.453125 1.078125 -1.25q0.40625 -0.796875 0.40625 -1.8125q0 -1.015625 -0.40625 -1.796875q-0.390625 -0.78125 -1.078125 -1.234375q-0.6875 -0.46875 -1.59375 -0.46875q-0.890625 0 -1.578125 0.46875q-0.6875 0.453125 -1.09375 1.234375q-0.40625 0.78125 -0.40625 1.796875q0 1.015625 0.40625 1.8125q0.40625 0.796875 1.09375 1.25q0.6875 0.453125 1.578125 0.453125zm23.887512 1.21875q-1.53125 0 -2.34375 -0.65625q-0.8125 -0.671875 -0.8125 -1.9375l0 -5.578125l-3.109375 0l0 -1.125l3.109375 0l0 -2.5l1.359375 -0.3125l0 2.8125l4.203125 0l0 1.125l-4.203125 0l0 5.359375q0 0.859375 0.46875 1.234375q0.46875 0.359375 1.34375 0.359375q0.546875 0 1.125 -0.109375q0.578125 -0.109375 1.265625 -0.375l0 1.234375q-0.625 0.21875 -1.21875 0.34375q-0.59375 0.125 -1.1875 0.125zm5.9437256 -0.1875l0 -13.46875l1.359375 -0.28125l0 6.125q1.046875 -1.625 2.890625 -1.625q1.0 0 1.734375 0.421875q0.734375 0.421875 1.15625 1.171875q0.421875 0.75 0.421875 1.765625l0 5.890625l-1.359375 0l0 -5.5q0 -1.21875 -0.671875 -1.90625q-0.65625 -0.703125 -1.78125 -0.703125q-0.75 0 -1.359375 0.359375q-0.609375 0.34375 -1.03125 1.03125l0 6.71875l-1.359375 0zm14.818787 -11.265625q-0.484375 0 -0.828125 -0.34375q-0.34375 -0.34375 -0.34375 -0.8125q0 -0.484375 0.34375 -0.8125q0.34375 -0.34375 0.828125 -0.34375q0.484375 0 0.828125 0.34375q0.34375 0.328125 0.34375 0.8125q0 0.46875 -0.34375 0.8125q-0.34375 0.34375 -0.828125 0.34375zm2.28125 11.453125q-1.4375 0 -2.203125 -0.671875q-0.765625 -0.671875 -0.765625 -2.015625l0 -5.484375l-3.375 0l0 -1.125l4.734375 0l0 6.484375q0 0.859375 0.40625 1.234375q0.40625 0.359375 1.21875 0.359375q0.484375 0 0.984375 -0.09375q0.5 -0.109375 1.125 -0.34375l0 1.21875q-0.546875 0.1875 -1.078125 0.3125q-0.53125 0.125 -1.046875 0.125zm8.943726 0q-1.203125 0 -2.25 -0.328125q-1.046875 -0.328125 -1.75 -1.015625l0.71875 -0.953125q0.875 0.640625 1.65625 0.890625q0.796875 0.25 1.59375 0.25q1.140625 0 1.875 -0.4375q0.734375 -0.453125 0.734375 -1.15625q0 -0.53125 -0.34375 -0.8125q-0.34375 -0.296875 -0.90625 -0.421875q-0.5625 -0.140625 -1.25 -0.203125q-0.671875 -0.078125 -1.359375 -0.203125q-0.671875 -0.125 -1.234375 -0.359375q-0.5625 -0.25 -0.90625 -0.71875q-0.34375 -0.484375 -0.34375 -1.28125q0 -0.8125 0.453125 -1.40625q0.46875 -0.59375 1.28125 -0.9375q0.828125 -0.34375 1.859375 -0.34375q1.03125 0 1.953125 0.25q0.921875 0.25 1.84375 0.890625l-0.671875 0.984375q-0.765625 -0.546875 -1.5625 -0.75q-0.796875 -0.21875 -1.609375 -0.21875q-1.03125 0 -1.671875 0.390625q-0.625 0.390625 -0.625 1.046875q0 0.515625 0.34375 0.796875q0.34375 0.28125 0.90625 0.421875q0.578125 0.125 1.25 0.203125q0.6875 0.078125 1.359375 0.203125q0.6875 0.125 1.25 0.375q0.578125 0.25 0.921875 0.734375q0.34375 0.46875 0.34375 1.296875q0 0.78125 -0.5 1.421875q-0.5 0.640625 -1.375 1.015625q-0.875 0.375 -1.984375 0.375z" fill-rule="nonzero"/><path fill="#000000" d="m908.87787 76.74739q-1.4375 0 -2.203125 -0.671875q-0.765625 -0.671875 -0.765625 -2.015625l0 -9.9375l-3.375 0l0 -1.1250038l4.734375 0l0 10.937504q0 0.859375 0.40625 1.234375q0.40625 0.359375 1.21875 0.359375q0.484375 0 0.984375 -0.09375q0.5 -0.109375 1.125 -0.34375l0 1.21875q-0.546875 0.1875 -1.078125 0.3125q-0.53125 0.125 -1.046875 0.125zm9.271912 0q-1.3125 0 -2.359375 -0.625q-1.046875 -0.625 -1.65625 -1.6875q-0.59375 -1.078125 -0.59375 -2.421875q0 -1.34375 0.578125 -2.40625q0.578125 -1.0625 1.5625 -1.671875q1.0 -0.625 2.234375 -0.625q1.296875 0 2.296875 0.609375q1.015625 0.59375 1.59375 1.640625q0.578125 1.03125 0.578125 2.328125l0 0.421875l-7.53125 0q0.078125 0.921875 0.515625 1.671875q0.453125 0.734375 1.1875 1.15625q0.75 0.421875 1.640625 0.421875q0.796875 0 1.5 -0.3125q0.703125 -0.3125 1.171875 -0.859375l0.953125 0.84375q-0.734375 0.75 -1.671875 1.140625q-0.921875 0.375 -2.0 0.375zm-3.25 -5.453125l6.140625 0q-0.125 -0.8125 -0.5625 -1.4375q-0.4375 -0.640625 -1.09375 -1.0q-0.65625 -0.375 -1.484375 -0.375q-0.765625 0 -1.40625 0.359375q-0.625 0.34375 -1.046875 0.984375q-0.421875 0.640625 -0.546875 1.46875zm13.396851 5.453125q-1.0 0 -1.78125 -0.34375q-0.765625 -0.359375 -1.203125 -0.984375q-0.421875 -0.625 -0.421875 -1.453125q0 -0.828125 0.4375 -1.4375q0.4375 -0.609375 1.234375 -0.9375q0.796875 -0.34375 1.84375 -0.34375q0.8125 0 1.515625 0.15625q0.71875 0.15625 1.359375 0.53125l0 -1.046875q0 -1.21875 -0.625 -1.828125q-0.609375 -0.609375 -1.828125 -0.609375q-0.6875 0 -1.375 0.203125q-0.6875 0.1875 -1.546875 0.671875l-0.5625 -1.03125q0.984375 -0.546875 1.875 -0.765625q0.90625 -0.21875 1.78125 -0.21875q1.734375 0 2.671875 0.875q0.953125 0.875 0.953125 2.515625l0 5.859375l-1.34375 0l0 -1.046875q-0.640625 0.640625 -1.375 0.9375q-0.734375 0.296875 -1.609375 0.296875zm-2.09375 -2.8125q0 0.796875 0.65625 1.28125q0.65625 0.484375 1.71875 0.484375q0.796875 0 1.453125 -0.25q0.671875 -0.25 1.25 -0.8125l0 -1.75q-0.578125 -0.359375 -1.234375 -0.5q-0.65625 -0.15625 -1.4375 -0.15625q-1.078125 0 -1.75 0.46875q-0.65625 0.46875 -0.65625 1.234375zm12.537537 2.625l0 -7.984375l-3.109375 0l0 -1.125l3.109375 0l0 -1.828125q0 -2.8750038 3.296875 -2.8750038q0.5625 0 1.125 0.125q0.578125 0.109375 1.140625 0.3125l0 1.2656288q-0.6875 -0.28125 -1.21875 -0.375q-0.515625 -0.109378815 -1.171875 -0.109378815q-0.875 0 -1.34375 0.4375038q-0.46875 0.4375 -0.46875 1.453125l0 1.59375l4.203125 0l0 1.125l-4.203125 0l0 7.984375l-1.359375 0z" fill-rule="nonzero"/><path fill="#000000" fill-opacity="0.0" d="m745.8935 169.36745l170.42523 0l0 35.559067l-170.42523 0z" fill-rule="evenodd"/><path fill="#646485" d="m758.62787 191.2612q-0.84375 0 -1.53125 -0.4375q-0.671875 -0.453125 -1.078125 -1.203125q-0.390625 -0.765625 -0.390625 -1.6875q0 -0.953125 0.40625 -1.703125q0.40625 -0.75 1.09375 -1.1875q0.703125 -0.453125 1.546875 -0.453125q0.609375 0 1.125 0.234375q0.515625 0.21875 0.90625 0.671875l0 -3.953125l0.96875 -0.203125l0 9.828125l-0.96875 0l0 -0.859375q-0.375 0.453125 -0.90625 0.703125q-0.53125 0.25 -1.171875 0.25zm0.234375 -0.859375q0.578125 0 1.046875 -0.21875q0.484375 -0.234375 0.796875 -0.640625l0 -3.21875q-0.328125 -0.421875 -0.8125 -0.65625q-0.484375 -0.234375 -1.03125 -0.234375q-0.65625 0 -1.171875 0.328125q-0.5 0.3125 -0.8125 0.875q-0.296875 0.5625 -0.296875 1.28125q0 0.703125 0.296875 1.28125q0.3125 0.5625 0.8125 0.890625q0.515625 0.3125 1.171875 0.3125zm8.184326 0.90625q-0.9375 0 -1.6875 -0.453125q-0.734375 -0.453125 -1.171875 -1.21875q-0.4375 -0.765625 -0.4375 -1.71875q0 -0.96875 0.40625 -1.71875q0.421875 -0.765625 1.140625 -1.203125q0.71875 -0.4375 1.59375 -0.4375q0.921875 0 1.640625 0.4375q0.71875 0.421875 1.125 1.171875q0.421875 0.734375 0.421875 1.671875l0 0.296875l-5.375 0q0.046875 0.65625 0.359375 1.1875q0.328125 0.53125 0.859375 0.828125q0.53125 0.296875 1.171875 0.296875q0.5625 0 1.0625 -0.21875q0.5 -0.21875 0.84375 -0.609375l0.671875 0.59375q-0.515625 0.546875 -1.1875 0.828125q-0.65625 0.265625 -1.4375 0.265625zm-2.3125 -3.90625l4.375 0q-0.078125 -0.578125 -0.390625 -1.03125q-0.3125 -0.453125 -0.78125 -0.703125q-0.46875 -0.265625 -1.0625 -0.265625q-0.546875 0 -1.0 0.25q-0.453125 0.25 -0.75 0.703125q-0.296875 0.453125 -0.390625 1.046875zm11.684387 3.90625q-1.03125 0 -1.578125 -0.484375q-0.546875 -0.484375 -0.546875 -1.4375l0 -7.109375l-2.40625 0l0 -0.796875l3.390625 0l0 7.8125q0 0.609375 0.28125 0.875q0.296875 0.265625 0.875 0.265625q0.34375 0 0.703125 -0.0625q0.359375 -0.078125 0.796875 -0.25l0 0.875q-0.390625 0.125 -0.765625 0.21875q-0.375 0.09375 -0.75 0.09375zm6.621826 0q-0.9375 0 -1.6875 -0.453125q-0.734375 -0.453125 -1.171875 -1.21875q-0.4375 -0.765625 -0.4375 -1.71875q0 -0.96875 0.40625 -1.71875q0.421875 -0.765625 1.140625 -1.203125q0.71875 -0.4375 1.59375 -0.4375q0.921875 0 1.640625 0.4375q0.71875 0.421875 1.125 1.171875q0.421875 0.734375 0.421875 1.671875l0 0.296875l-5.375 0q0.046875 0.65625 0.359375 1.1875q0.328125 0.53125 0.859375 0.828125q0.53125 0.296875 1.171875 0.296875q0.5625 0 1.0625 -0.21875q0.5 -0.21875 0.84375 -0.609375l0.671875 0.59375q-0.515625 0.546875 -1.1875 0.828125q-0.65625 0.265625 -1.4375 0.265625zm-2.3125 -3.90625l4.375 0q-0.078125 -0.578125 -0.390625 -1.03125q-0.3125 -0.453125 -0.78125 -0.703125q-0.46875 -0.265625 -1.0625 -0.265625q-0.546875 0 -1.0 0.25q-0.453125 0.25 -0.75 0.703125q-0.296875 0.453125 -0.390625 1.046875zm11.215576 3.90625q-1.09375 0 -1.671875 -0.46875q-0.578125 -0.484375 -0.578125 -1.390625l0 -3.984375l-2.21875 0l0 -0.796875l2.21875 0l0 -1.796875l0.96875 -0.21875l0 2.015625l3.0 0l0 0.796875l-3.0 0l0 3.828125q0 0.609375 0.328125 0.875q0.34375 0.265625 0.96875 0.265625q0.390625 0 0.796875 -0.078125q0.421875 -0.078125 0.90625 -0.265625l0 0.875q-0.4375 0.15625 -0.875 0.25q-0.421875 0.09375 -0.84375 0.09375zm7.090576 0q-0.9375 0 -1.6875 -0.453125q-0.734375 -0.453125 -1.171875 -1.21875q-0.4375 -0.765625 -0.4375 -1.71875q0 -0.96875 0.40625 -1.71875q0.421875 -0.765625 1.140625 -1.203125q0.71875 -0.4375 1.59375 -0.4375q0.921875 0 1.640625 0.4375q0.71875 0.421875 1.125 1.171875q0.421875 0.734375 0.421875 1.671875l0 0.296875l-5.375 0q0.046875 0.65625 0.359375 1.1875q0.328125 0.53125 0.859375 0.828125q0.53125 0.296875 1.171875 0.296875q0.5625 0 1.0625 -0.21875q0.5 -0.21875 0.84375 -0.609375l0.671875 0.59375q-0.515625 0.546875 -1.1875 0.828125q-0.65625 0.265625 -1.4375 0.265625zm-2.3125 -3.90625l4.375 0q-0.078125 -0.578125 -0.390625 -1.03125q-0.3125 -0.453125 -0.78125 -0.703125q-0.46875 -0.265625 -1.0625 -0.265625q-0.546875 0 -1.0 0.25q-0.453125 0.25 -0.75 0.703125q-0.296875 0.453125 -0.390625 1.046875zm18.149963 3.890625q-0.375 0 -0.625 -0.25q-0.25 -0.265625 -0.25 -0.625q0 -0.359375 0.25 -0.609375q0.25 -0.25 0.625 -0.25q0.375 0 0.609375 0.25q0.25 0.25 0.25 0.609375q0 0.359375 -0.25 0.625q-0.234375 0.25 -0.609375 0.25zm8.028076 2.796875q-0.640625 0 -1.3125 -0.1875q-0.65625 -0.171875 -1.21875 -0.5l0.421875 -0.734375q0.59375 0.296875 1.078125 0.4375q0.5 0.15625 1.0 0.15625q1.8125 0 1.8125 -1.671875l0 -1.296875q-0.375 0.46875 -0.90625 0.71875q-0.53125 0.234375 -1.171875 0.234375q-0.84375 0 -1.53125 -0.4375q-0.671875 -0.453125 -1.078125 -1.203125q-0.390625 -0.75 -0.390625 -1.6875q0 -0.9375 0.40625 -1.6875q0.40625 -0.75 1.09375 -1.1875q0.703125 -0.453125 1.546875 -0.453125q0.609375 0 1.125 0.234375q0.53125 0.21875 0.921875 0.671875l0 -0.828125l0.953125 0l0 6.90625q0 1.21875 -0.703125 1.859375q-0.703125 0.65625 -2.046875 0.65625zm-0.0625 -3.6875q0.578125 0 1.046875 -0.21875q0.484375 -0.234375 0.796875 -0.65625l0 -3.203125q-0.328125 -0.421875 -0.8125 -0.65625q-0.484375 -0.234375 -1.03125 -0.234375q-0.65625 0 -1.171875 0.328125q-0.5 0.3125 -0.8125 0.875q-0.296875 0.5625 -0.296875 1.28125q0 0.703125 0.296875 1.28125q0.3125 0.5625 0.8125 0.890625q0.515625 0.3125 1.171875 0.3125zm7.934326 -7.28125q-0.34375 0 -0.59375 -0.25q-0.25 -0.25 -0.25 -0.578125q0 -0.34375 0.25 -0.578125q0.25 -0.25 0.59375 -0.25q0.34375 0 0.59375 0.25q0.25 0.234375 0.25 0.578125q0 0.328125 -0.25 0.578125q-0.25 0.25 -0.59375 0.25zm1.625 8.1875q-1.03125 0 -1.578125 -0.484375q-0.546875 -0.484375 -0.546875 -1.4375l0 -3.921875l-2.40625 0l0 -0.796875l3.390625 0l0 4.625q0 0.609375 0.28125 0.875q0.296875 0.265625 0.875 0.265625q0.34375 0 0.703125 -0.0625q0.359375 -0.078125 0.796875 -0.25l0 0.875q-0.390625 0.125 -0.765625 0.21875q-0.375 0.09375 -0.75 0.09375zm7.528137 0q-1.09375 0 -1.671875 -0.46875q-0.578125 -0.484375 -0.578125 -1.390625l0 -3.984375l-2.21875 0l0 -0.796875l2.21875 0l0 -1.796875l0.96875 -0.21875l0 2.015625l3.0 0l0 0.796875l-3.0 0l0 3.828125q0 0.609375 0.328125 0.875q0.34375 0.265625 0.96875 0.265625q0.390625 0 0.796875 -0.078125q0.421875 -0.078125 0.90625 -0.265625l0 0.875q-0.4375 0.15625 -0.875 0.25q-0.421875 0.09375 -0.84375 0.09375zm6.840576 -8.1875q-0.34375 0 -0.59375 -0.25q-0.25 -0.25 -0.25 -0.578125q0 -0.34375 0.25 -0.578125q0.25 -0.25 0.59375 -0.25q0.34375 0 0.59375 0.25q0.25 0.234375 0.25 0.578125q0 0.328125 -0.25 0.578125q-0.25 0.25 -0.59375 0.25zm1.625 8.1875q-1.03125 0 -1.578125 -0.484375q-0.546875 -0.484375 -0.546875 -1.4375l0 -3.921875l-2.40625 0l0 -0.796875l3.390625 0l0 4.625q0 0.609375 0.28125 0.875q0.296875 0.265625 0.875 0.265625q0.34375 0 0.703125 -0.0625q0.359375 -0.078125 0.796875 -0.25l0 0.875q-0.390625 0.125 -0.765625 0.21875q-0.375 0.09375 -0.75 0.09375zm6.496826 2.78125q-0.640625 0 -1.3125 -0.1875q-0.65625 -0.171875 -1.21875 -0.5l0.421875 -0.734375q0.59375 0.296875 1.078125 0.4375q0.5 0.15625 1.0 0.15625q1.8125 0 1.8125 -1.671875l0 -1.296875q-0.375 0.46875 -0.90625 0.71875q-0.53125 0.234375 -1.171875 0.234375q-0.84375 0 -1.53125 -0.4375q-0.671875 -0.453125 -1.078125 -1.203125q-0.390625 -0.75 -0.390625 -1.6875q0 -0.9375 0.40625 -1.6875q0.40625 -0.75 1.09375 -1.1875q0.703125 -0.453125 1.546875 -0.453125q0.609375 0 1.125 0.234375q0.53125 0.21875 0.921875 0.671875l0 -0.828125l0.953125 0l0 6.90625q0 1.21875 -0.703125 1.859375q-0.703125 0.65625 -2.046875 0.65625zm-0.0625 -3.6875q0.578125 0 1.046875 -0.21875q0.484375 -0.234375 0.796875 -0.65625l0 -3.203125q-0.328125 -0.421875 -0.8125 -0.65625q-0.484375 -0.234375 -1.03125 -0.234375q-0.65625 0 -1.171875 0.328125q-0.5 0.3125 -0.8125 0.875q-0.296875 0.5625 -0.296875 1.28125q0 0.703125 0.296875 1.28125q0.3125 0.5625 0.8125 0.890625q0.515625 0.3125 1.171875 0.3125zm5.340576 0.765625l0 -6.5l0.984375 0l0 1.046875q0.734375 -1.15625 2.0625 -1.15625q0.703125 0 1.234375 0.296875q0.53125 0.296875 0.828125 0.84375q0.296875 0.53125 0.296875 1.25l0 4.21875l-0.96875 0l0 -3.9375q0 -0.859375 -0.484375 -1.359375q-0.46875 -0.5 -1.265625 -0.5q-0.53125 0 -0.984375 0.25q-0.4375 0.25 -0.71875 0.75l0 4.796875l-0.984375 0zm10.684387 0.140625q-0.890625 0 -1.609375 -0.453125q-0.71875 -0.453125 -1.140625 -1.203125q-0.40625 -0.765625 -0.40625 -1.71875q0 -0.96875 0.40625 -1.734375q0.421875 -0.765625 1.140625 -1.203125q0.71875 -0.4375 1.609375 -0.4375q0.890625 0 1.59375 0.4375q0.71875 0.4375 1.140625 1.203125q0.421875 0.765625 0.421875 1.734375q0 0.953125 -0.421875 1.71875q-0.421875 0.75 -1.140625 1.203125q-0.703125 0.453125 -1.59375 0.453125zm0 -0.875q0.640625 0 1.125 -0.328125q0.5 -0.328125 0.78125 -0.890625q0.296875 -0.5625 0.296875 -1.296875q0 -0.71875 -0.296875 -1.28125q-0.28125 -0.5625 -0.78125 -0.890625q-0.484375 -0.328125 -1.125 -0.328125q-0.640625 0 -1.140625 0.328125q-0.484375 0.328125 -0.78125 0.890625q-0.28125 0.5625 -0.28125 1.28125q0 0.734375 0.28125 1.296875q0.296875 0.5625 0.78125 0.890625q0.5 0.328125 1.140625 0.328125zm5.231201 0.734375l0 -0.796875l1.796875 0l0 -4.90625l-1.796875 0l0 -0.796875l2.765625 0l0 1.453125q0.296875 -0.75 0.875 -1.15625q0.59375 -0.40625 1.359375 -0.40625q0.3125 0 0.546875 0.046875q0.25 0.046875 0.578125 0.15625l0 0.890625q-0.328125 -0.109375 -0.640625 -0.171875q-0.296875 -0.0625 -0.59375 -0.0625q-0.71875 0 -1.28125 0.375q-0.546875 0.359375 -0.84375 1.0625l0 3.515625l1.890625 0l0 0.796875l-4.65625 0zm10.918701 0.140625q-0.9375 0 -1.6875 -0.453125q-0.734375 -0.453125 -1.171875 -1.21875q-0.4375 -0.765625 -0.4375 -1.71875q0 -0.96875 0.40625 -1.71875q0.421875 -0.765625 1.140625 -1.203125q0.71875 -0.4375 1.59375 -0.4375q0.921875 0 1.640625 0.4375q0.71875 0.421875 1.125 1.171875q0.421875 0.734375 0.421875 1.671875l0 0.296875l-5.375 0q0.046875 0.65625 0.359375 1.1875q0.328125 0.53125 0.859375 0.828125q0.53125 0.296875 1.171875 0.296875q0.5625 0 1.0625 -0.21875q0.5 -0.21875 0.84375 -0.609375l0.671875 0.59375q-0.515625 0.546875 -1.1875 0.828125q-0.65625 0.265625 -1.4375 0.265625zm-2.3125 -3.90625l4.375 0q-0.078125 -0.578125 -0.390625 -1.03125q-0.3125 -0.453125 -0.78125 -0.703125q-0.46875 -0.265625 -1.0625 -0.265625q-0.546875 0 -1.0 0.25q-0.453125 0.25 -0.75 0.703125q-0.296875 0.453125 -0.390625 1.046875z" fill-rule="nonzero"/></g></svg>